<?xml version="1.0" standalone="no"?>
<!DOCTYPE svg PUBLIC "-//W3C//DTD SVG 1.1//EN" "http://www.w3.org/Graphics/SVG/1.1/DTD/svg11.dtd" >
<svg xmlns="http://www.w3.org/2000/svg" xmlns:xlink="http://www.w3.org/1999/xlink" version="1.1">
<metadata></metadata>
<defs>
<font id="hernandez_brossemibold" horiz-adv-x="1224" >
<font-face units-per-em="2048" ascent="1638" descent="-410" />
<missing-glyph horiz-adv-x="487" />
<glyph horiz-adv-x="0" />
<glyph horiz-adv-x="682" />
<glyph unicode=" "  horiz-adv-x="487" />
<glyph unicode="&#x09;" horiz-adv-x="487" />
<glyph unicode="&#xa0;" horiz-adv-x="487" />
<glyph unicode="!" d="M129 154v292q61 9 76 9q67 0 96 -37.5t29 -116.5t-29.5 -115t-97.5 -36q-47 0 -74 4zM158 780q0 53 33.5 91t93.5 38q39 0 78 -21t69.5 -55t58.5 -74.5t48 -81.5t35 -75t22 -55l8 -21q-117 148 -319 148q-49 0 -88 30t-39 76zM188 201q4 -2 19 -2q37 0 50 25t13 77 q0 54 -13 78t-50 24q-13 0 -19 -2v-200zM377 154v297h155v-52h-96v-69h82v-49h-82v-78h96v-49h-155zM437 1128.5q-7 46.5 24 83.5q23 23 53 34t65 3.5t64 -35.5q38 -37 48.5 -102t-2.5 -131t-31.5 -126.5t-35.5 -98.5l-18 -39q20 191 -125 330q-35 35 -42 81.5zM571 154 q3 156 15 297h80l39 -164l38 164h82q3 -45 13 -297h-60q0 108 -6 213l-41 -168h-55l-41 168h-2q-4 -140 -4 -213h-58zM647 633q3 8 9 22t25 53.5t39 75.5t50 80.5t59.5 76t66 53.5t71.5 22q49 0 79.5 -24.5t39 -51t8.5 -53.5q0 -43 -34.5 -72.5t-72.5 -34.5 q-213 -23 -340 -147zM879 301q0 81 24 117.5t84 36.5t85.5 -37t25.5 -117q0 -79 -25.5 -115t-85.5 -36t-84 35.5t-24 115.5zM938 301q0 -54 10 -78t39 -24q30 0 40.5 24t10.5 78q0 55 -10 78.5t-41 23.5q-29 0 -39 -23.5t-10 -78.5z" />
<glyph unicode="&#x22;" d="M129 154v292q61 9 76 9q67 0 96 -37.5t29 -116.5t-29.5 -115t-97.5 -36q-47 0 -74 4zM158 780q0 53 33.5 91t93.5 38q39 0 78 -21t69.5 -55t58.5 -74.5t48 -81.5t35 -75t22 -55l8 -21q-117 148 -319 148q-49 0 -88 30t-39 76zM188 201q4 -2 19 -2q37 0 50 25t13 77 q0 54 -13 78t-50 24q-13 0 -19 -2v-200zM377 154v297h155v-52h-96v-69h82v-49h-82v-78h96v-49h-155zM437 1128.5q-7 46.5 24 83.5q23 23 53 34t65 3.5t64 -35.5q38 -37 48.5 -102t-2.5 -131t-31.5 -126.5t-35.5 -98.5l-18 -39q20 191 -125 330q-35 35 -42 81.5zM571 154 q3 156 15 297h80l39 -164l38 164h82q3 -45 13 -297h-60q0 108 -6 213l-41 -168h-55l-41 168h-2q-4 -140 -4 -213h-58zM647 633q3 8 9 22t25 53.5t39 75.5t50 80.5t59.5 76t66 53.5t71.5 22q49 0 79.5 -24.5t39 -51t8.5 -53.5q0 -43 -34.5 -72.5t-72.5 -34.5 q-213 -23 -340 -147zM879 301q0 81 24 117.5t84 36.5t85.5 -37t25.5 -117q0 -79 -25.5 -115t-85.5 -36t-84 35.5t-24 115.5zM938 301q0 -54 10 -78t39 -24q30 0 40.5 24t10.5 78q0 55 -10 78.5t-41 23.5q-29 0 -39 -23.5t-10 -78.5z" />
<glyph unicode="#" d="M129 154v292q61 9 76 9q67 0 96 -37.5t29 -116.5t-29.5 -115t-97.5 -36q-47 0 -74 4zM158 780q0 53 33.5 91t93.5 38q39 0 78 -21t69.5 -55t58.5 -74.5t48 -81.5t35 -75t22 -55l8 -21q-117 148 -319 148q-49 0 -88 30t-39 76zM188 201q4 -2 19 -2q37 0 50 25t13 77 q0 54 -13 78t-50 24q-13 0 -19 -2v-200zM377 154v297h155v-52h-96v-69h82v-49h-82v-78h96v-49h-155zM437 1128.5q-7 46.5 24 83.5q23 23 53 34t65 3.5t64 -35.5q38 -37 48.5 -102t-2.5 -131t-31.5 -126.5t-35.5 -98.5l-18 -39q20 191 -125 330q-35 35 -42 81.5zM571 154 q3 156 15 297h80l39 -164l38 164h82q3 -45 13 -297h-60q0 108 -6 213l-41 -168h-55l-41 168h-2q-4 -140 -4 -213h-58zM647 633q3 8 9 22t25 53.5t39 75.5t50 80.5t59.5 76t66 53.5t71.5 22q49 0 79.5 -24.5t39 -51t8.5 -53.5q0 -43 -34.5 -72.5t-72.5 -34.5 q-213 -23 -340 -147zM879 301q0 81 24 117.5t84 36.5t85.5 -37t25.5 -117q0 -79 -25.5 -115t-85.5 -36t-84 35.5t-24 115.5zM938 301q0 -54 10 -78t39 -24q30 0 40.5 24t10.5 78q0 55 -10 78.5t-41 23.5q-29 0 -39 -23.5t-10 -78.5z" />
<glyph unicode="$" d="M129 154v292q61 9 76 9q67 0 96 -37.5t29 -116.5t-29.5 -115t-97.5 -36q-47 0 -74 4zM158 780q0 53 33.5 91t93.5 38q39 0 78 -21t69.5 -55t58.5 -74.5t48 -81.5t35 -75t22 -55l8 -21q-117 148 -319 148q-49 0 -88 30t-39 76zM188 201q4 -2 19 -2q37 0 50 25t13 77 q0 54 -13 78t-50 24q-13 0 -19 -2v-200zM377 154v297h155v-52h-96v-69h82v-49h-82v-78h96v-49h-155zM437 1128.5q-7 46.5 24 83.5q23 23 53 34t65 3.5t64 -35.5q38 -37 48.5 -102t-2.5 -131t-31.5 -126.5t-35.5 -98.5l-18 -39q20 191 -125 330q-35 35 -42 81.5zM571 154 q3 156 15 297h80l39 -164l38 164h82q3 -45 13 -297h-60q0 108 -6 213l-41 -168h-55l-41 168h-2q-4 -140 -4 -213h-58zM647 633q3 8 9 22t25 53.5t39 75.5t50 80.5t59.5 76t66 53.5t71.5 22q49 0 79.5 -24.5t39 -51t8.5 -53.5q0 -43 -34.5 -72.5t-72.5 -34.5 q-213 -23 -340 -147zM879 301q0 81 24 117.5t84 36.5t85.5 -37t25.5 -117q0 -79 -25.5 -115t-85.5 -36t-84 35.5t-24 115.5zM938 301q0 -54 10 -78t39 -24q30 0 40.5 24t10.5 78q0 55 -10 78.5t-41 23.5q-29 0 -39 -23.5t-10 -78.5z" />
<glyph unicode="%" d="M129 154v292q61 9 76 9q67 0 96 -37.5t29 -116.5t-29.5 -115t-97.5 -36q-47 0 -74 4zM158 780q0 53 33.5 91t93.5 38q39 0 78 -21t69.5 -55t58.5 -74.5t48 -81.5t35 -75t22 -55l8 -21q-117 148 -319 148q-49 0 -88 30t-39 76zM188 201q4 -2 19 -2q37 0 50 25t13 77 q0 54 -13 78t-50 24q-13 0 -19 -2v-200zM377 154v297h155v-52h-96v-69h82v-49h-82v-78h96v-49h-155zM437 1128.5q-7 46.5 24 83.5q23 23 53 34t65 3.5t64 -35.5q38 -37 48.5 -102t-2.5 -131t-31.5 -126.5t-35.5 -98.5l-18 -39q20 191 -125 330q-35 35 -42 81.5zM571 154 q3 156 15 297h80l39 -164l38 164h82q3 -45 13 -297h-60q0 108 -6 213l-41 -168h-55l-41 168h-2q-4 -140 -4 -213h-58zM647 633q3 8 9 22t25 53.5t39 75.5t50 80.5t59.5 76t66 53.5t71.5 22q49 0 79.5 -24.5t39 -51t8.5 -53.5q0 -43 -34.5 -72.5t-72.5 -34.5 q-213 -23 -340 -147zM879 301q0 81 24 117.5t84 36.5t85.5 -37t25.5 -117q0 -79 -25.5 -115t-85.5 -36t-84 35.5t-24 115.5zM938 301q0 -54 10 -78t39 -24q30 0 40.5 24t10.5 78q0 55 -10 78.5t-41 23.5q-29 0 -39 -23.5t-10 -78.5z" />
<glyph unicode="&#x26;" d="M129 154v292q61 9 76 9q67 0 96 -37.5t29 -116.5t-29.5 -115t-97.5 -36q-47 0 -74 4zM158 780q0 53 33.5 91t93.5 38q39 0 78 -21t69.5 -55t58.5 -74.5t48 -81.5t35 -75t22 -55l8 -21q-117 148 -319 148q-49 0 -88 30t-39 76zM188 201q4 -2 19 -2q37 0 50 25t13 77 q0 54 -13 78t-50 24q-13 0 -19 -2v-200zM377 154v297h155v-52h-96v-69h82v-49h-82v-78h96v-49h-155zM437 1128.5q-7 46.5 24 83.5q23 23 53 34t65 3.5t64 -35.5q38 -37 48.5 -102t-2.5 -131t-31.5 -126.5t-35.5 -98.5l-18 -39q20 191 -125 330q-35 35 -42 81.5zM571 154 q3 156 15 297h80l39 -164l38 164h82q3 -45 13 -297h-60q0 108 -6 213l-41 -168h-55l-41 168h-2q-4 -140 -4 -213h-58zM647 633q3 8 9 22t25 53.5t39 75.5t50 80.5t59.5 76t66 53.5t71.5 22q49 0 79.5 -24.5t39 -51t8.5 -53.5q0 -43 -34.5 -72.5t-72.5 -34.5 q-213 -23 -340 -147zM879 301q0 81 24 117.5t84 36.5t85.5 -37t25.5 -117q0 -79 -25.5 -115t-85.5 -36t-84 35.5t-24 115.5zM938 301q0 -54 10 -78t39 -24q30 0 40.5 24t10.5 78q0 55 -10 78.5t-41 23.5q-29 0 -39 -23.5t-10 -78.5z" />
<glyph unicode="'" d="M129 154v292q61 9 76 9q67 0 96 -37.5t29 -116.5t-29.5 -115t-97.5 -36q-47 0 -74 4zM158 780q0 53 33.5 91t93.5 38q39 0 78 -21t69.5 -55t58.5 -74.5t48 -81.5t35 -75t22 -55l8 -21q-117 148 -319 148q-49 0 -88 30t-39 76zM188 201q4 -2 19 -2q37 0 50 25t13 77 q0 54 -13 78t-50 24q-13 0 -19 -2v-200zM377 154v297h155v-52h-96v-69h82v-49h-82v-78h96v-49h-155zM437 1128.5q-7 46.5 24 83.5q23 23 53 34t65 3.5t64 -35.5q38 -37 48.5 -102t-2.5 -131t-31.5 -126.5t-35.5 -98.5l-18 -39q20 191 -125 330q-35 35 -42 81.5zM571 154 q3 156 15 297h80l39 -164l38 164h82q3 -45 13 -297h-60q0 108 -6 213l-41 -168h-55l-41 168h-2q-4 -140 -4 -213h-58zM647 633q3 8 9 22t25 53.5t39 75.5t50 80.5t59.5 76t66 53.5t71.5 22q49 0 79.5 -24.5t39 -51t8.5 -53.5q0 -43 -34.5 -72.5t-72.5 -34.5 q-213 -23 -340 -147zM879 301q0 81 24 117.5t84 36.5t85.5 -37t25.5 -117q0 -79 -25.5 -115t-85.5 -36t-84 35.5t-24 115.5zM938 301q0 -54 10 -78t39 -24q30 0 40.5 24t10.5 78q0 55 -10 78.5t-41 23.5q-29 0 -39 -23.5t-10 -78.5z" />
<glyph unicode="(" d="M129 154v292q61 9 76 9q67 0 96 -37.5t29 -116.5t-29.5 -115t-97.5 -36q-47 0 -74 4zM158 780q0 53 33.5 91t93.5 38q39 0 78 -21t69.5 -55t58.5 -74.5t48 -81.5t35 -75t22 -55l8 -21q-117 148 -319 148q-49 0 -88 30t-39 76zM188 201q4 -2 19 -2q37 0 50 25t13 77 q0 54 -13 78t-50 24q-13 0 -19 -2v-200zM377 154v297h155v-52h-96v-69h82v-49h-82v-78h96v-49h-155zM437 1128.5q-7 46.5 24 83.5q23 23 53 34t65 3.5t64 -35.5q38 -37 48.5 -102t-2.5 -131t-31.5 -126.5t-35.5 -98.5l-18 -39q20 191 -125 330q-35 35 -42 81.5zM571 154 q3 156 15 297h80l39 -164l38 164h82q3 -45 13 -297h-60q0 108 -6 213l-41 -168h-55l-41 168h-2q-4 -140 -4 -213h-58zM647 633q3 8 9 22t25 53.5t39 75.5t50 80.5t59.5 76t66 53.5t71.5 22q49 0 79.5 -24.5t39 -51t8.5 -53.5q0 -43 -34.5 -72.5t-72.5 -34.5 q-213 -23 -340 -147zM879 301q0 81 24 117.5t84 36.5t85.5 -37t25.5 -117q0 -79 -25.5 -115t-85.5 -36t-84 35.5t-24 115.5zM938 301q0 -54 10 -78t39 -24q30 0 40.5 24t10.5 78q0 55 -10 78.5t-41 23.5q-29 0 -39 -23.5t-10 -78.5z" />
<glyph unicode=")" d="M129 154v292q61 9 76 9q67 0 96 -37.5t29 -116.5t-29.5 -115t-97.5 -36q-47 0 -74 4zM158 780q0 53 33.5 91t93.5 38q39 0 78 -21t69.5 -55t58.5 -74.5t48 -81.5t35 -75t22 -55l8 -21q-117 148 -319 148q-49 0 -88 30t-39 76zM188 201q4 -2 19 -2q37 0 50 25t13 77 q0 54 -13 78t-50 24q-13 0 -19 -2v-200zM377 154v297h155v-52h-96v-69h82v-49h-82v-78h96v-49h-155zM437 1128.5q-7 46.5 24 83.5q23 23 53 34t65 3.5t64 -35.5q38 -37 48.5 -102t-2.5 -131t-31.5 -126.5t-35.5 -98.5l-18 -39q20 191 -125 330q-35 35 -42 81.5zM571 154 q3 156 15 297h80l39 -164l38 164h82q3 -45 13 -297h-60q0 108 -6 213l-41 -168h-55l-41 168h-2q-4 -140 -4 -213h-58zM647 633q3 8 9 22t25 53.5t39 75.5t50 80.5t59.5 76t66 53.5t71.5 22q49 0 79.5 -24.5t39 -51t8.5 -53.5q0 -43 -34.5 -72.5t-72.5 -34.5 q-213 -23 -340 -147zM879 301q0 81 24 117.5t84 36.5t85.5 -37t25.5 -117q0 -79 -25.5 -115t-85.5 -36t-84 35.5t-24 115.5zM938 301q0 -54 10 -78t39 -24q30 0 40.5 24t10.5 78q0 55 -10 78.5t-41 23.5q-29 0 -39 -23.5t-10 -78.5z" />
<glyph unicode="*" d="M129 154v292q61 9 76 9q67 0 96 -37.5t29 -116.5t-29.5 -115t-97.5 -36q-47 0 -74 4zM158 780q0 53 33.5 91t93.5 38q39 0 78 -21t69.5 -55t58.5 -74.5t48 -81.5t35 -75t22 -55l8 -21q-117 148 -319 148q-49 0 -88 30t-39 76zM188 201q4 -2 19 -2q37 0 50 25t13 77 q0 54 -13 78t-50 24q-13 0 -19 -2v-200zM377 154v297h155v-52h-96v-69h82v-49h-82v-78h96v-49h-155zM437 1128.5q-7 46.5 24 83.5q23 23 53 34t65 3.5t64 -35.5q38 -37 48.5 -102t-2.5 -131t-31.5 -126.5t-35.5 -98.5l-18 -39q20 191 -125 330q-35 35 -42 81.5zM571 154 q3 156 15 297h80l39 -164l38 164h82q3 -45 13 -297h-60q0 108 -6 213l-41 -168h-55l-41 168h-2q-4 -140 -4 -213h-58zM647 633q3 8 9 22t25 53.5t39 75.5t50 80.5t59.5 76t66 53.5t71.5 22q49 0 79.5 -24.5t39 -51t8.5 -53.5q0 -43 -34.5 -72.5t-72.5 -34.5 q-213 -23 -340 -147zM879 301q0 81 24 117.5t84 36.5t85.5 -37t25.5 -117q0 -79 -25.5 -115t-85.5 -36t-84 35.5t-24 115.5zM938 301q0 -54 10 -78t39 -24q30 0 40.5 24t10.5 78q0 55 -10 78.5t-41 23.5q-29 0 -39 -23.5t-10 -78.5z" />
<glyph unicode="+" d="M129 154v292q61 9 76 9q67 0 96 -37.5t29 -116.5t-29.5 -115t-97.5 -36q-47 0 -74 4zM158 780q0 53 33.5 91t93.5 38q39 0 78 -21t69.5 -55t58.5 -74.5t48 -81.5t35 -75t22 -55l8 -21q-117 148 -319 148q-49 0 -88 30t-39 76zM188 201q4 -2 19 -2q37 0 50 25t13 77 q0 54 -13 78t-50 24q-13 0 -19 -2v-200zM377 154v297h155v-52h-96v-69h82v-49h-82v-78h96v-49h-155zM437 1128.5q-7 46.5 24 83.5q23 23 53 34t65 3.5t64 -35.5q38 -37 48.5 -102t-2.5 -131t-31.5 -126.5t-35.5 -98.5l-18 -39q20 191 -125 330q-35 35 -42 81.5zM571 154 q3 156 15 297h80l39 -164l38 164h82q3 -45 13 -297h-60q0 108 -6 213l-41 -168h-55l-41 168h-2q-4 -140 -4 -213h-58zM647 633q3 8 9 22t25 53.5t39 75.5t50 80.5t59.5 76t66 53.5t71.5 22q49 0 79.5 -24.5t39 -51t8.5 -53.5q0 -43 -34.5 -72.5t-72.5 -34.5 q-213 -23 -340 -147zM879 301q0 81 24 117.5t84 36.5t85.5 -37t25.5 -117q0 -79 -25.5 -115t-85.5 -36t-84 35.5t-24 115.5zM938 301q0 -54 10 -78t39 -24q30 0 40.5 24t10.5 78q0 55 -10 78.5t-41 23.5q-29 0 -39 -23.5t-10 -78.5z" />
<glyph unicode="," horiz-adv-x="491" d="M100 113q0 62 42.5 103.5t105.5 41.5q66 0 108.5 -44t42.5 -140q0 -104 -65 -213t-191 -178l-14 24v2q70 47 107.5 111.5t46.5 161.5q-19 -7 -45 -7q-56 0 -97 40.5t-41 97.5z" />
<glyph unicode="-" d="M129 154v292q61 9 76 9q67 0 96 -37.5t29 -116.5t-29.5 -115t-97.5 -36q-47 0 -74 4zM158 780q0 53 33.5 91t93.5 38q39 0 78 -21t69.5 -55t58.5 -74.5t48 -81.5t35 -75t22 -55l8 -21q-117 148 -319 148q-49 0 -88 30t-39 76zM188 201q4 -2 19 -2q37 0 50 25t13 77 q0 54 -13 78t-50 24q-13 0 -19 -2v-200zM377 154v297h155v-52h-96v-69h82v-49h-82v-78h96v-49h-155zM437 1128.5q-7 46.5 24 83.5q23 23 53 34t65 3.5t64 -35.5q38 -37 48.5 -102t-2.5 -131t-31.5 -126.5t-35.5 -98.5l-18 -39q20 191 -125 330q-35 35 -42 81.5zM571 154 q3 156 15 297h80l39 -164l38 164h82q3 -45 13 -297h-60q0 108 -6 213l-41 -168h-55l-41 168h-2q-4 -140 -4 -213h-58zM647 633q3 8 9 22t25 53.5t39 75.5t50 80.5t59.5 76t66 53.5t71.5 22q49 0 79.5 -24.5t39 -51t8.5 -53.5q0 -43 -34.5 -72.5t-72.5 -34.5 q-213 -23 -340 -147zM879 301q0 81 24 117.5t84 36.5t85.5 -37t25.5 -117q0 -79 -25.5 -115t-85.5 -36t-84 35.5t-24 115.5zM938 301q0 -54 10 -78t39 -24q30 0 40.5 24t10.5 78q0 55 -10 78.5t-41 23.5q-29 0 -39 -23.5t-10 -78.5z" />
<glyph unicode="." horiz-adv-x="497" d="M100 123q0 61 44 105t106 44q60 0 103.5 -44t43.5 -105t-43.5 -105.5t-103.5 -44.5q-61 0 -105.5 45.5t-44.5 104.5z" />
<glyph unicode="/" d="M129 154v292q61 9 76 9q67 0 96 -37.5t29 -116.5t-29.5 -115t-97.5 -36q-47 0 -74 4zM158 780q0 53 33.5 91t93.5 38q39 0 78 -21t69.5 -55t58.5 -74.5t48 -81.5t35 -75t22 -55l8 -21q-117 148 -319 148q-49 0 -88 30t-39 76zM188 201q4 -2 19 -2q37 0 50 25t13 77 q0 54 -13 78t-50 24q-13 0 -19 -2v-200zM377 154v297h155v-52h-96v-69h82v-49h-82v-78h96v-49h-155zM437 1128.5q-7 46.5 24 83.5q23 23 53 34t65 3.5t64 -35.5q38 -37 48.5 -102t-2.5 -131t-31.5 -126.5t-35.5 -98.5l-18 -39q20 191 -125 330q-35 35 -42 81.5zM571 154 q3 156 15 297h80l39 -164l38 164h82q3 -45 13 -297h-60q0 108 -6 213l-41 -168h-55l-41 168h-2q-4 -140 -4 -213h-58zM647 633q3 8 9 22t25 53.5t39 75.5t50 80.5t59.5 76t66 53.5t71.5 22q49 0 79.5 -24.5t39 -51t8.5 -53.5q0 -43 -34.5 -72.5t-72.5 -34.5 q-213 -23 -340 -147zM879 301q0 81 24 117.5t84 36.5t85.5 -37t25.5 -117q0 -79 -25.5 -115t-85.5 -36t-84 35.5t-24 115.5zM938 301q0 -54 10 -78t39 -24q30 0 40.5 24t10.5 78q0 55 -10 78.5t-41 23.5q-29 0 -39 -23.5t-10 -78.5z" />
<glyph unicode="0" horiz-adv-x="1466" d="M94 735q-1 158 49.5 301t136 245t204 162t249.5 60t249 -59t204 -160t136.5 -243t49.5 -300t-51.5 -300t-135.5 -244t-203 -162t-249 -60q-175 0 -321 100t-231.5 275t-86.5 385zM385 739q0 -341 93.5 -534t254.5 -193t254.5 193t93.5 534t-93.5 534t-254.5 193 t-254.5 -193t-93.5 -534z" />
<glyph unicode="1" horiz-adv-x="698" d="M72 1245v12q36 14 73.5 31.5t64.5 32t67.5 39t60.5 37.5t66.5 43.5t64.5 42.5h25l-2 -1317q2 -96 104 -156v-10h-471v10q104 58 104 160v1075h-157z" />
<glyph unicode="2" horiz-adv-x="1218" d="M59 1110l123 393h11q5 -22 21.5 -37.5t43.5 -15.5q23 0 62 13t100.5 26.5t138.5 13.5q249 0 373 -102.5t121 -292.5q-1 -68 -21.5 -136t-52 -127.5t-88.5 -128t-112 -124.5t-143 -130.5t-161.5 -132t-185.5 -143.5h436q106 0 193 25t139 68q55 47 88 106h10l-96 -385 h-989v16q318 266 513 558.5t195 541.5q0 168 -70.5 259t-195.5 91q-46 0 -88.5 -12t-76.5 -29.5t-69.5 -49t-59.5 -57.5t-54.5 -69.5t-48 -71t-45.5 -73.5z" />
<glyph unicode="3" horiz-adv-x="1204" d="M76 348l10 4q38 -59 66 -99t71.5 -89.5t84.5 -79t96.5 -50t115.5 -20.5q168 0 250 101.5t82 275.5t-107.5 281t-277.5 94l-78 -6v14l82 25q153 44 227 129t74 235q0 138 -70.5 219.5t-181.5 81.5q-70 0 -132.5 -28t-115.5 -82.5t-90 -105t-82 -124.5l-10 6l123 392h10 q16 -54 64 -54q15 0 114 17.5t191 17.5q208 0 321 -83.5t113 -235.5q0 -70 -30 -130t-83 -103.5t-113.5 -74t-131.5 -51.5q87 -5 165 -30.5t142 -71.5t101.5 -120.5t37.5 -168.5q0 -204 -161 -331.5t-435 -127.5q-82 0 -154 17.5t-90 17.5q-49 0 -65 -53h-10z" />
<glyph unicode="4" d="M129 154v292q61 9 76 9q67 0 96 -37.5t29 -116.5t-29.5 -115t-97.5 -36q-47 0 -74 4zM158 780q0 53 33.5 91t93.5 38q39 0 78 -21t69.5 -55t58.5 -74.5t48 -81.5t35 -75t22 -55l8 -21q-117 148 -319 148q-49 0 -88 30t-39 76zM188 201q4 -2 19 -2q37 0 50 25t13 77 q0 54 -13 78t-50 24q-13 0 -19 -2v-200zM377 154v297h155v-52h-96v-69h82v-49h-82v-78h96v-49h-155zM437 1128.5q-7 46.5 24 83.5q23 23 53 34t65 3.5t64 -35.5q38 -37 48.5 -102t-2.5 -131t-31.5 -126.5t-35.5 -98.5l-18 -39q20 191 -125 330q-35 35 -42 81.5zM571 154 q3 156 15 297h80l39 -164l38 164h82q3 -45 13 -297h-60q0 108 -6 213l-41 -168h-55l-41 168h-2q-4 -140 -4 -213h-58zM647 633q3 8 9 22t25 53.5t39 75.5t50 80.5t59.5 76t66 53.5t71.5 22q49 0 79.5 -24.5t39 -51t8.5 -53.5q0 -43 -34.5 -72.5t-72.5 -34.5 q-213 -23 -340 -147zM879 301q0 81 24 117.5t84 36.5t85.5 -37t25.5 -117q0 -79 -25.5 -115t-85.5 -36t-84 35.5t-24 115.5zM938 301q0 -54 10 -78t39 -24q30 0 40.5 24t10.5 78q0 55 -10 78.5t-41 23.5q-29 0 -39 -23.5t-10 -78.5z" />
<glyph unicode="5" horiz-adv-x="1181" d="M74 358l10 4q40 -75 78 -129.5t91 -108t119.5 -82t143.5 -28.5q146 0 233 101t87 293q0 187 -91.5 298t-236.5 111q-114 0 -202 -34.5t-169 -94.5l-2 2l94 793h727q34 0 58 19t24 40h11l-23 -252h-770l-61 -522q173 109 421 109q220 0 352 -114.5t132 -328.5 q0 -112 -47.5 -202t-126 -145t-174 -83.5t-197.5 -28.5q-77 0 -136 10.5t-95.5 20.5t-57.5 10q-49 0 -63 -53h-10z" />
<glyph unicode="6" horiz-adv-x="1310" d="M100 717q0 224 84 404t230 281t325 101q69 0 143.5 -17.5t92.5 -17.5q21 0 38 15t23 39h11l122 -392l-10 -6q-54 86 -94.5 141t-90.5 104.5t-104 73t-116 23.5q-186 0 -281.5 -182.5t-95.5 -542.5v-24q57 99 165.5 158t243.5 59q196 0 316.5 -125.5t120.5 -331.5 q0 -213 -153 -357.5t-378 -144.5q-275 0 -433.5 199.5t-158.5 542.5zM377 672q7 -348 82.5 -503t232.5 -155q132 0 201.5 105.5t69.5 312.5q0 197 -75 309.5t-202 112.5q-91 0 -172.5 -48t-136.5 -134z" />
<glyph unicode="7" horiz-adv-x="1048" d="M16 1231l25 252h975v-150q-132 -186 -216 -351.5t-127.5 -329.5t-59 -311t-15.5 -341h-295q0 143 24.5 266t92 276.5t195 336.5t325.5 411h-809q-44 0 -71 -16t-33 -43h-11z" />
<glyph unicode="8" horiz-adv-x="1236" d="M92 350q0 126 83 224t247 157q-128 59 -198 154.5t-70 218.5q0 182 134.5 290.5t340.5 108.5q197 0 318.5 -88.5t121.5 -230.5q0 -225 -293 -353l68 -32q305 -149 305 -400q0 -188 -151 -306t-390 -118t-377.5 99.5t-138.5 275.5zM279 369q0 -167 94.5 -262t255.5 -95 q139 0 229 79.5t90 199.5q0 99 -59 174t-191 135l-239 113q-180 -116 -180 -344zM346 1214q0 -95 58 -164t190 -128l156 -76q161 127 161 323q1 137 -75.5 216t-210.5 81q-124 0 -201.5 -68t-77.5 -184z" />
<glyph unicode="9" horiz-adv-x="1316" d="M94 1006q0 214 151 355.5t384 141.5q269 0 429 -195.5t161 -537.5q0 -233 -82 -414.5t-228.5 -281t-333.5 -99.5q-77 0 -154 17.5t-95 17.5q-23 0 -41.5 -15t-22.5 -38h-10l-125 391l16 8q54 -87 96 -143t94 -106t109.5 -73t124.5 -22q199 0 285 175t86 556v35 q-54 -99 -161.5 -157t-241.5 -58q-194 0 -317.5 123t-123.5 320zM358 1034q0 -179 73.5 -285t201.5 -106q91 0 170 46t135 130q-7 336 -81.5 490.5t-225.5 154.5q-135 0 -204 -110.5t-69 -319.5z" />
<glyph unicode=":" horiz-adv-x="538" d="M121 123q0 61 43.5 105t105.5 44q60 0 104 -44t44 -105t-44 -105.5t-104 -44.5q-62 0 -105.5 45t-43.5 105zM121 831q0 60 44 104t105 44q60 0 104 -44t44 -104q0 -61 -44 -105t-104 -44q-62 0 -105.5 44.5t-43.5 104.5z" />
<glyph unicode=";" horiz-adv-x="563" d="M131 113q0 62 43 103.5t107 41.5q65 0 107 -44t42 -140q0 -104 -64 -213t-190 -178l-14 24v2q69 48 106.5 112.5t44.5 160.5q-16 -7 -43 -7q-57 0 -98 40.5t-41 97.5zM137 831q0 60 44.5 104t105.5 44q60 0 103.5 -44t43.5 -104q0 -63 -43.5 -107t-103.5 -44 q-61 0 -105.5 46t-44.5 105z" />
<glyph unicode="&#x3c;" d="M129 154v292q61 9 76 9q67 0 96 -37.5t29 -116.5t-29.5 -115t-97.5 -36q-47 0 -74 4zM158 780q0 53 33.5 91t93.5 38q39 0 78 -21t69.5 -55t58.5 -74.5t48 -81.5t35 -75t22 -55l8 -21q-117 148 -319 148q-49 0 -88 30t-39 76zM188 201q4 -2 19 -2q37 0 50 25t13 77 q0 54 -13 78t-50 24q-13 0 -19 -2v-200zM377 154v297h155v-52h-96v-69h82v-49h-82v-78h96v-49h-155zM437 1128.5q-7 46.5 24 83.5q23 23 53 34t65 3.5t64 -35.5q38 -37 48.5 -102t-2.5 -131t-31.5 -126.5t-35.5 -98.5l-18 -39q20 191 -125 330q-35 35 -42 81.5zM571 154 q3 156 15 297h80l39 -164l38 164h82q3 -45 13 -297h-60q0 108 -6 213l-41 -168h-55l-41 168h-2q-4 -140 -4 -213h-58zM647 633q3 8 9 22t25 53.5t39 75.5t50 80.5t59.5 76t66 53.5t71.5 22q49 0 79.5 -24.5t39 -51t8.5 -53.5q0 -43 -34.5 -72.5t-72.5 -34.5 q-213 -23 -340 -147zM879 301q0 81 24 117.5t84 36.5t85.5 -37t25.5 -117q0 -79 -25.5 -115t-85.5 -36t-84 35.5t-24 115.5zM938 301q0 -54 10 -78t39 -24q30 0 40.5 24t10.5 78q0 55 -10 78.5t-41 23.5q-29 0 -39 -23.5t-10 -78.5z" />
<glyph unicode="=" d="M129 154v292q61 9 76 9q67 0 96 -37.5t29 -116.5t-29.5 -115t-97.5 -36q-47 0 -74 4zM158 780q0 53 33.5 91t93.5 38q39 0 78 -21t69.5 -55t58.5 -74.5t48 -81.5t35 -75t22 -55l8 -21q-117 148 -319 148q-49 0 -88 30t-39 76zM188 201q4 -2 19 -2q37 0 50 25t13 77 q0 54 -13 78t-50 24q-13 0 -19 -2v-200zM377 154v297h155v-52h-96v-69h82v-49h-82v-78h96v-49h-155zM437 1128.5q-7 46.5 24 83.5q23 23 53 34t65 3.5t64 -35.5q38 -37 48.5 -102t-2.5 -131t-31.5 -126.5t-35.5 -98.5l-18 -39q20 191 -125 330q-35 35 -42 81.5zM571 154 q3 156 15 297h80l39 -164l38 164h82q3 -45 13 -297h-60q0 108 -6 213l-41 -168h-55l-41 168h-2q-4 -140 -4 -213h-58zM647 633q3 8 9 22t25 53.5t39 75.5t50 80.5t59.5 76t66 53.5t71.5 22q49 0 79.5 -24.5t39 -51t8.5 -53.5q0 -43 -34.5 -72.5t-72.5 -34.5 q-213 -23 -340 -147zM879 301q0 81 24 117.5t84 36.5t85.5 -37t25.5 -117q0 -79 -25.5 -115t-85.5 -36t-84 35.5t-24 115.5zM938 301q0 -54 10 -78t39 -24q30 0 40.5 24t10.5 78q0 55 -10 78.5t-41 23.5q-29 0 -39 -23.5t-10 -78.5z" />
<glyph unicode="&#x3e;" d="M129 154v292q61 9 76 9q67 0 96 -37.5t29 -116.5t-29.5 -115t-97.5 -36q-47 0 -74 4zM158 780q0 53 33.5 91t93.5 38q39 0 78 -21t69.5 -55t58.5 -74.5t48 -81.5t35 -75t22 -55l8 -21q-117 148 -319 148q-49 0 -88 30t-39 76zM188 201q4 -2 19 -2q37 0 50 25t13 77 q0 54 -13 78t-50 24q-13 0 -19 -2v-200zM377 154v297h155v-52h-96v-69h82v-49h-82v-78h96v-49h-155zM437 1128.5q-7 46.5 24 83.5q23 23 53 34t65 3.5t64 -35.5q38 -37 48.5 -102t-2.5 -131t-31.5 -126.5t-35.5 -98.5l-18 -39q20 191 -125 330q-35 35 -42 81.5zM571 154 q3 156 15 297h80l39 -164l38 164h82q3 -45 13 -297h-60q0 108 -6 213l-41 -168h-55l-41 168h-2q-4 -140 -4 -213h-58zM647 633q3 8 9 22t25 53.5t39 75.5t50 80.5t59.5 76t66 53.5t71.5 22q49 0 79.5 -24.5t39 -51t8.5 -53.5q0 -43 -34.5 -72.5t-72.5 -34.5 q-213 -23 -340 -147zM879 301q0 81 24 117.5t84 36.5t85.5 -37t25.5 -117q0 -79 -25.5 -115t-85.5 -36t-84 35.5t-24 115.5zM938 301q0 -54 10 -78t39 -24q30 0 40.5 24t10.5 78q0 55 -10 78.5t-41 23.5q-29 0 -39 -23.5t-10 -78.5z" />
<glyph unicode="?" horiz-adv-x="983" d="M35 1049l149 391h11q18 -54 63 -54q16 0 86 17.5t152 17.5q199 0 315.5 -93.5t116.5 -256.5q0 -75 -26 -139.5t-68 -110.5t-93 -86t-101.5 -74.5t-92.5 -69t-68 -76.5t-26 -89v-45h-25v45q0 90 25.5 164.5t62 128t73 107.5t62 129t25.5 165q0 71 -19 124t-51 82.5 t-70 43.5t-81 14q-64 0 -123 -28.5t-111 -83.5t-89 -106t-83 -126zM299 123q0 61 45 105t105 44t103.5 -44t43.5 -105t-43.5 -105.5t-103.5 -44.5q-61 0 -105.5 45.5t-44.5 104.5z" />
<glyph unicode="@" d="M129 154v292q61 9 76 9q67 0 96 -37.5t29 -116.5t-29.5 -115t-97.5 -36q-47 0 -74 4zM158 780q0 53 33.5 91t93.5 38q39 0 78 -21t69.5 -55t58.5 -74.5t48 -81.5t35 -75t22 -55l8 -21q-117 148 -319 148q-49 0 -88 30t-39 76zM188 201q4 -2 19 -2q37 0 50 25t13 77 q0 54 -13 78t-50 24q-13 0 -19 -2v-200zM377 154v297h155v-52h-96v-69h82v-49h-82v-78h96v-49h-155zM437 1128.5q-7 46.5 24 83.5q23 23 53 34t65 3.5t64 -35.5q38 -37 48.5 -102t-2.5 -131t-31.5 -126.5t-35.5 -98.5l-18 -39q20 191 -125 330q-35 35 -42 81.5zM571 154 q3 156 15 297h80l39 -164l38 164h82q3 -45 13 -297h-60q0 108 -6 213l-41 -168h-55l-41 168h-2q-4 -140 -4 -213h-58zM647 633q3 8 9 22t25 53.5t39 75.5t50 80.5t59.5 76t66 53.5t71.5 22q49 0 79.5 -24.5t39 -51t8.5 -53.5q0 -43 -34.5 -72.5t-72.5 -34.5 q-213 -23 -340 -147zM879 301q0 81 24 117.5t84 36.5t85.5 -37t25.5 -117q0 -79 -25.5 -115t-85.5 -36t-84 35.5t-24 115.5zM938 301q0 -54 10 -78t39 -24q30 0 40.5 24t10.5 78q0 55 -10 78.5t-41 23.5q-29 0 -39 -23.5t-10 -78.5z" />
<glyph unicode="A" horiz-adv-x="1351" d="M0 0v10q109 45 158 183l479 1310h47l551 -1353q36 -85 123 -140v-10h-510v10q62 18 88 62q13 22 13 49t-13 59l-184 461h-387l-156 -428q-10 -26 -10 -51q-1 -38 25 -74q42 -58 93 -76v-12h-317zM379 680h358l-186 467z" />
<glyph unicode="B" horiz-adv-x="1304" d="M106 0v10q107 63 107 160v1141q0 98 -107 157v15h478q227 0 345 -75t118 -220q0 -66 -32 -120.5t-83.5 -89.5t-109 -56.5t-115.5 -28.5q75 -4 146.5 -20.5t141 -51.5t122 -83.5t84.5 -121.5t32 -161q0 -212 -168.5 -333.5t-462.5 -121.5h-496zM475 33h105q179 0 279.5 90 t101.5 280q0 118 -36 210.5t-94 145.5t-123.5 80t-132.5 27h-100v-833zM475 899h98q104 0 175 65t71 177q0 73 -18.5 128.5t-48 89t-71 55t-82.5 29t-87 7.5h-37v-551z" />
<glyph unicode="C" horiz-adv-x="1472" d="M90 737q0 126 35.5 242t103.5 211t162 165.5t216.5 109t260.5 38.5q82 0 162.5 -17.5t99.5 -17.5q48 0 64 54h10l187 -475l-15 -9q-40 64 -72 110t-86 111t-104 107q-52 41 -118 71q-64 29 -128 29h-4q-157 -1 -267 -83t-162 -223t-52 -329q0 -175 48 -320t130 -239.5 t188.5 -146t225.5 -51.5q266 0 432 237l25 -14q-91 -151 -245.5 -233t-340.5 -82q-153 0 -289.5 50.5t-240.5 144t-165 238.5t-61 322z" />
<glyph unicode="D" horiz-adv-x="1556" d="M106 0v10q107 60 107 160v1141q0 97 -107 157v15h517q137 0 261 -28.5t231 -87.5t185.5 -144t123 -205t44.5 -262q0 -139 -43 -259.5t-121 -210.5t-184.5 -155t-235.5 -98t-272 -33h-506zM473 1446l2 -1409h103q289 0 448.5 157.5t159.5 469.5q0 181 -52.5 331.5 t-141 247.5t-201.5 150t-236 53h-82z" />
<glyph unicode="E" horiz-adv-x="1218" d="M106 0v10q107 60 107 160v1143q0 100 -107 160v10h828l141 -353l-12 -8q-21 36 -46.5 72.5t-67 83.5t-83.5 82t-96 59.5t-106 24.5h-189v-420h230q49 0 90 46.5t57 92.5h12v-317h-12q-16 46 -57 92.5t-90 46.5h-230v-946h291q56 0 114 28.5t104.5 70.5t89.5 97t72 103 t50 92l14 -6l-143 -424h-961z" />
<glyph unicode="F" horiz-adv-x="1095" d="M106 0v10q107 60 107 160v1143q0 100 -107 160v10h838l141 -353l-12 -8q-21 36 -46.5 72.5t-67 83.5t-83.5 82t-96 59.5t-106 24.5h-199v-432h240q49 0 90 46t57 91h12v-315h-12q-16 46 -57 92.5t-90 46.5h-240v-803q0 -95 115 -160v-10h-484z" />
<glyph unicode="G" horiz-adv-x="1611" d="M90 737q0 158 56 298.5t154 243.5t240.5 163.5t307.5 60.5q89 0 176.5 -17.5t105.5 -17.5q48 0 64 54h10l236 -553l-15 -8q-33 62 -70.5 120.5t-96.5 131.5t-119.5 126t-138.5 90t-156 37q-220 0 -340.5 -174.5t-120.5 -460.5q0 -175 47 -320.5t126.5 -240t182.5 -146.5 t217 -52q106 0 191.5 37t138.5 97.5t81 133.5t28 149q0 187 -232 187h-20v24h420q-12 -104 -46.5 -204t-96.5 -194t-144.5 -164.5t-198.5 -113t-250 -42.5q-117 0 -225.5 31.5t-201.5 95t-162 152.5t-108.5 211.5t-39.5 264.5z" />
<glyph unicode="H" horiz-adv-x="1583" d="M106 0v10q107 60 107 160v1143q0 100 -107 160v10h474v-10q-105 -59 -105 -160v-420h633v420q0 102 -104 160v10h473v-10q-107 -60 -107 -160v-1143q0 -100 107 -160v-10h-473v10q104 58 104 160v684h-633v-684q0 -101 105 -160v-10h-474z" />
<glyph unicode="I" horiz-adv-x="655" d="M109 0v10q36 20 62 53.5t26 75.5v1204q0 42 -26 76t-62 54v10h438v-10q-36 -20 -62 -54t-26 -76v-1204q0 -42 26 -75.5t62 -53.5v-10h-438z" />
<glyph unicode="J" horiz-adv-x="837" d="M4 125l14 14q76 -86 172 -86q93 0 143 61.5t50 209.5v989q0 97 -107 160v10h474v-10q-105 -62 -105 -160v-989q0 -184 -86 -266.5t-248 -82.5q-197 0 -307 150z" />
<glyph unicode="K" horiz-adv-x="1447" d="M106 0v10q107 60 107 160v1143q0 100 -107 160v10h474v-10q-105 -59 -105 -160v-561l602 540q45 37 45 85q0 9 -2 17q-10 58 -73 76v13h315v-10q-28 -15 -54 -33.5t-40.5 -30.5t-44 -39t-45.5 -41l-394 -352l559 -834q21 -31 49.5 -58t43.5 -38t53 -37v-10h-500v10 q63 18 77 58q4 10 4 23q0 35 -30 83l-446 631l-119 -105v-530q0 -101 105 -160v-10h-474z" />
<glyph unicode="L" horiz-adv-x="1202" d="M106 0v10q107 60 107 160v1143q0 100 -107 160v10h474v-10q-105 -59 -105 -160v-1274h189q123 0 209 40t156.5 126.5t154.5 247.5l12 -7l-139 -446h-951z" />
<glyph unicode="M" horiz-adv-x="1880" d="M90 0v10q44 21 84.5 78.5t40.5 128.5v1096q0 101 -106 160v10h358l491 -1141l467 1141h351v-10q-107 -60 -107 -160v-1149q0 -92 105 -154v-10h-474v10q105 62 105 146v1157l-541 -1338h-24l-578 1336v-1094q0 -69 49 -126t97 -81v-10h-318z" />
<glyph unicode="N" horiz-adv-x="1454" d="M90 0v10q44 21 84.5 78.5t40.5 128.5v1133q-31 44 -43.5 61t-29 35t-31.5 27v10h317l770 -1071v854q0 69 -48 126.5t-97 80.5v10h319v-10q-44 -21 -84.5 -78.5t-40.5 -128.5v-1286h-37l-948 1304v-1067q0 -69 49.5 -126.5t98.5 -80.5v-10h-320z" />
<glyph unicode="O" horiz-adv-x="1675" d="M88 737q0 159 58.5 301t158.5 244.5t239 162.5t294 60q214 0 386 -99.5t267.5 -273.5t95.5 -389q0 -157 -56.5 -298t-154 -244.5t-238 -164.5t-300.5 -61q-210 0 -382 99.5t-270 274t-98 388.5zM328 952q0 -109 30.5 -234t88.5 -245.5t134 -218.5t176 -158.5t204 -60.5 q180 0 284.5 136.5t104.5 356.5q0 155 -50.5 319t-134 296.5t-202 217.5t-244.5 85q-182 0 -286.5 -138t-104.5 -356z" />
<glyph unicode="P" horiz-adv-x="1261" d="M106 0v10q107 60 107 160v1143q0 50 -30 92t-77 68v10h560q268 0 413.5 -105.5t145.5 -296.5q0 -197 -172 -313.5t-469 -116.5h-109v-481q0 -49 39 -92.5t92 -67.5v-10h-500zM475 690h94q181 0 283 85.5t102 244.5q0 198 -97.5 311t-264.5 113h-117v-754z" />
<glyph unicode="Q" horiz-adv-x="1675" d="M88 737q0 159 58.5 301t158.5 244.5t239 162.5t294 60q214 0 386 -99.5t267.5 -273.5t95.5 -389q0 -151 -52 -287t-143 -238t-221.5 -166.5t-281.5 -74.5l-172 -114q55 16 119 16q96 -1 276.5 -41.5t247.5 -40.5q157 0 256 41l6 -14q-56 -52 -85.5 -77t-79 -58 t-100 -46.5t-110.5 -13.5q-65 0 -144.5 24.5t-141 53.5t-134.5 53.5t-127 24.5q-35 0 -65.5 -6t-52 -14t-66.5 -27l-14 24l327 213q-156 1 -293.5 60t-235.5 160t-155 242t-57 300zM328 952q0 -109 30.5 -234t88.5 -245.5t134 -218.5t176 -158.5t204 -60.5 q180 0 284.5 136.5t104.5 356.5q0 155 -50.5 319t-134 296.5t-202 217.5t-244.5 85q-182 0 -286.5 -138t-104.5 -356z" />
<glyph unicode="R" horiz-adv-x="1325" d="M106 0v10q107 60 107 160v1141q0 97 -107 157v15h556q73 0 142.5 -10.5t138 -37t119.5 -66.5t82.5 -103t31.5 -142q0 -88 -42 -158.5t-109.5 -112.5t-147 -64.5t-160.5 -22.5h-6q142 -52 230 -151.5t157 -266.5q63 -163 118 -239.5t119 -98.5v-10h-364l-62 154 q-14 35 -38 97t-37 95t-35 85.5t-36.5 82t-37 71.5t-41 66t-43.5 53t-49.5 45.5t-54 30.5t-62.5 21v-631q0 -101 105 -160v-10h-474zM475 829q14 -2 45 -11t66.5 -15t79.5 -6q112 0 176.5 71.5t64.5 204.5q0 179 -95.5 275t-250.5 96h-86v-615z" />
<glyph unicode="S" horiz-adv-x="1132" d="M31 446l14 9q36 -90 80.5 -165t102.5 -140t132.5 -101.5t157.5 -36.5q153 0 234.5 75t81.5 214q0 116 -71 209t-261 217q-203 135 -279 230t-76 214q0 149 110 241.5t284 92.5q65 0 132 -17.5t87 -17.5q32 0 49.5 16t21.5 38h11l114 -402l-12 -8q-36 73 -71 128.5 t-83 110.5t-108 85t-127 30q-86 0 -135 -49t-49 -135q0 -60 26 -105.5t95 -102t210 -146.5q200 -127 276.5 -237.5t76.5 -262.5q0 -214 -142.5 -334.5t-394.5 -120.5q-99 0 -175.5 19.5t-96.5 19.5q-62 0 -74 -55h-10z" />
<glyph unicode="T" horiz-adv-x="1232" d="M29 1108l61 375h1053l61 -375l-14 -2q-2 5 -13.5 32t-17.5 40t-20 42t-24 46t-27 43.5t-31.5 43t-34.5 36t-39.5 30t-43 18t-48.5 7.5h-143v-1274q0 -101 106 -160v-10h-473v10q104 58 104 160v1274h-143q-25 0 -48.5 -7.5t-43 -18t-39.5 -30t-34.5 -36t-31.5 -43 t-27 -43.5t-24 -46t-20 -42t-17.5 -40t-13.5 -32z" />
<glyph unicode="U" horiz-adv-x="1468" d="M80 1473v10h471v-10q-105 -59 -105 -160v-797q0 -242 105 -356.5t283 -114.5q177 0 282 116t105 333v772q0 71 -41 128.5t-86 78.5v10h303v-10q-44 -21 -84.5 -78.5t-40.5 -128.5v-752q0 -259 -131 -399t-393 -140q-127 0 -229.5 34t-177.5 102t-116 177t-41 251v774 q0 102 -104 160z" />
<glyph unicode="V" horiz-adv-x="1376" d="M-4 1473v10h510v-10q-66 -20 -89 -69q-10 -22 -10 -47q0 -31 15 -67l387 -960l346 899q24 62 24 108q0 26 -8 48q-21 59 -104 85v13h317v-10q-102 -42 -159 -183l-498 -1290h-61l-547 1333q-18 45 -46.5 77t-76.5 63z" />
<glyph unicode="W" horiz-adv-x="1933" d="M-2 1473v10h506v-10q-60 -19 -86 -62q-13 -23 -13 -51q0 -26 11 -57l315 -959l320 846h39l350 -868l280 948q7 24 7 46q0 42 -25 80q-38 57 -86 74v13h319v-10q-119 -47 -163 -183l-398 -1290h-61l-355 838l-311 -838h-57l-469 1333q-29 78 -123 140z" />
<glyph unicode="X" horiz-adv-x="1282" d="M-6 0v10q89 33 170 174l338 568l-336 573q-23 39 -38.5 61t-43 47t-61.5 40v10h528v-13q-65 -21 -83 -65q-6 -15 -7 -33q0 -34 24 -78l265 -450l256 424q22 35 22 70q0 22 -8 44q-22 58 -94 88v13h317v-10q-85 -33 -166 -175l-305 -493l379 -647q33 -57 63.5 -89.5 t81.5 -58.5v-10h-528v12q65 21 83 65q6 15 6 33q0 34 -23 78l-310 525l-288 -498q-23 -37 -23 -73q0 -20 8 -42q21 -58 94 -88v-12h-321z" />
<glyph unicode="Y" horiz-adv-x="1292" d="M23 1473v10h507v-13q-85 -28 -85 -92q0 -36 26 -84l293 -503l274 469q28 48 28 89q0 19 -6 36q-18 56 -89 85v13h313v-10q-45 -18 -91 -67t-83 -114l-322 -544v-578q0 -50 29 -92t76 -68v-10h-496v10q107 60 107 152v579l-338 584q-35 59 -64 91.5t-79 56.5z" />
<glyph unicode="Z" horiz-adv-x="1208" d="M63 0v39l723 1405h-299q-51 0 -104.5 -24.5t-96 -59.5t-83.5 -82t-66.5 -83.5t-46.5 -72.5l-12 8l141 353h864v-39l-733 -1405h373q56 0 113.5 28.5t103.5 70.5t89.5 97.5t72.5 102.5t51 92l12 -6l-141 -424h-961z" />
<glyph unicode="[" d="M129 154v292q61 9 76 9q67 0 96 -37.5t29 -116.5t-29.5 -115t-97.5 -36q-47 0 -74 4zM158 780q0 53 33.5 91t93.5 38q39 0 78 -21t69.5 -55t58.5 -74.5t48 -81.5t35 -75t22 -55l8 -21q-117 148 -319 148q-49 0 -88 30t-39 76zM188 201q4 -2 19 -2q37 0 50 25t13 77 q0 54 -13 78t-50 24q-13 0 -19 -2v-200zM377 154v297h155v-52h-96v-69h82v-49h-82v-78h96v-49h-155zM437 1128.5q-7 46.5 24 83.5q23 23 53 34t65 3.5t64 -35.5q38 -37 48.5 -102t-2.5 -131t-31.5 -126.5t-35.5 -98.5l-18 -39q20 191 -125 330q-35 35 -42 81.5zM571 154 q3 156 15 297h80l39 -164l38 164h82q3 -45 13 -297h-60q0 108 -6 213l-41 -168h-55l-41 168h-2q-4 -140 -4 -213h-58zM647 633q3 8 9 22t25 53.5t39 75.5t50 80.5t59.5 76t66 53.5t71.5 22q49 0 79.5 -24.5t39 -51t8.5 -53.5q0 -43 -34.5 -72.5t-72.5 -34.5 q-213 -23 -340 -147zM879 301q0 81 24 117.5t84 36.5t85.5 -37t25.5 -117q0 -79 -25.5 -115t-85.5 -36t-84 35.5t-24 115.5zM938 301q0 -54 10 -78t39 -24q30 0 40.5 24t10.5 78q0 55 -10 78.5t-41 23.5q-29 0 -39 -23.5t-10 -78.5z" />
<glyph unicode="\" d="M129 154v292q61 9 76 9q67 0 96 -37.5t29 -116.5t-29.5 -115t-97.5 -36q-47 0 -74 4zM158 780q0 53 33.5 91t93.5 38q39 0 78 -21t69.5 -55t58.5 -74.5t48 -81.5t35 -75t22 -55l8 -21q-117 148 -319 148q-49 0 -88 30t-39 76zM188 201q4 -2 19 -2q37 0 50 25t13 77 q0 54 -13 78t-50 24q-13 0 -19 -2v-200zM377 154v297h155v-52h-96v-69h82v-49h-82v-78h96v-49h-155zM437 1128.5q-7 46.5 24 83.5q23 23 53 34t65 3.5t64 -35.5q38 -37 48.5 -102t-2.5 -131t-31.5 -126.5t-35.5 -98.5l-18 -39q20 191 -125 330q-35 35 -42 81.5zM571 154 q3 156 15 297h80l39 -164l38 164h82q3 -45 13 -297h-60q0 108 -6 213l-41 -168h-55l-41 168h-2q-4 -140 -4 -213h-58zM647 633q3 8 9 22t25 53.5t39 75.5t50 80.5t59.5 76t66 53.5t71.5 22q49 0 79.5 -24.5t39 -51t8.5 -53.5q0 -43 -34.5 -72.5t-72.5 -34.5 q-213 -23 -340 -147zM879 301q0 81 24 117.5t84 36.5t85.5 -37t25.5 -117q0 -79 -25.5 -115t-85.5 -36t-84 35.5t-24 115.5zM938 301q0 -54 10 -78t39 -24q30 0 40.5 24t10.5 78q0 55 -10 78.5t-41 23.5q-29 0 -39 -23.5t-10 -78.5z" />
<glyph unicode="]" d="M129 154v292q61 9 76 9q67 0 96 -37.5t29 -116.5t-29.5 -115t-97.5 -36q-47 0 -74 4zM158 780q0 53 33.5 91t93.5 38q39 0 78 -21t69.5 -55t58.5 -74.5t48 -81.5t35 -75t22 -55l8 -21q-117 148 -319 148q-49 0 -88 30t-39 76zM188 201q4 -2 19 -2q37 0 50 25t13 77 q0 54 -13 78t-50 24q-13 0 -19 -2v-200zM377 154v297h155v-52h-96v-69h82v-49h-82v-78h96v-49h-155zM437 1128.5q-7 46.5 24 83.5q23 23 53 34t65 3.5t64 -35.5q38 -37 48.5 -102t-2.5 -131t-31.5 -126.5t-35.5 -98.5l-18 -39q20 191 -125 330q-35 35 -42 81.5zM571 154 q3 156 15 297h80l39 -164l38 164h82q3 -45 13 -297h-60q0 108 -6 213l-41 -168h-55l-41 168h-2q-4 -140 -4 -213h-58zM647 633q3 8 9 22t25 53.5t39 75.5t50 80.5t59.5 76t66 53.5t71.5 22q49 0 79.5 -24.5t39 -51t8.5 -53.5q0 -43 -34.5 -72.5t-72.5 -34.5 q-213 -23 -340 -147zM879 301q0 81 24 117.5t84 36.5t85.5 -37t25.5 -117q0 -79 -25.5 -115t-85.5 -36t-84 35.5t-24 115.5zM938 301q0 -54 10 -78t39 -24q30 0 40.5 24t10.5 78q0 55 -10 78.5t-41 23.5q-29 0 -39 -23.5t-10 -78.5z" />
<glyph unicode="^" d="M129 154v292q61 9 76 9q67 0 96 -37.5t29 -116.5t-29.5 -115t-97.5 -36q-47 0 -74 4zM158 780q0 53 33.5 91t93.5 38q39 0 78 -21t69.5 -55t58.5 -74.5t48 -81.5t35 -75t22 -55l8 -21q-117 148 -319 148q-49 0 -88 30t-39 76zM188 201q4 -2 19 -2q37 0 50 25t13 77 q0 54 -13 78t-50 24q-13 0 -19 -2v-200zM377 154v297h155v-52h-96v-69h82v-49h-82v-78h96v-49h-155zM437 1128.5q-7 46.5 24 83.5q23 23 53 34t65 3.5t64 -35.5q38 -37 48.5 -102t-2.5 -131t-31.5 -126.5t-35.5 -98.5l-18 -39q20 191 -125 330q-35 35 -42 81.5zM571 154 q3 156 15 297h80l39 -164l38 164h82q3 -45 13 -297h-60q0 108 -6 213l-41 -168h-55l-41 168h-2q-4 -140 -4 -213h-58zM647 633q3 8 9 22t25 53.5t39 75.5t50 80.5t59.5 76t66 53.5t71.5 22q49 0 79.5 -24.5t39 -51t8.5 -53.5q0 -43 -34.5 -72.5t-72.5 -34.5 q-213 -23 -340 -147zM879 301q0 81 24 117.5t84 36.5t85.5 -37t25.5 -117q0 -79 -25.5 -115t-85.5 -36t-84 35.5t-24 115.5zM938 301q0 -54 10 -78t39 -24q30 0 40.5 24t10.5 78q0 55 -10 78.5t-41 23.5q-29 0 -39 -23.5t-10 -78.5z" />
<glyph unicode="_" d="M129 154v292q61 9 76 9q67 0 96 -37.5t29 -116.5t-29.5 -115t-97.5 -36q-47 0 -74 4zM158 780q0 53 33.5 91t93.5 38q39 0 78 -21t69.5 -55t58.5 -74.5t48 -81.5t35 -75t22 -55l8 -21q-117 148 -319 148q-49 0 -88 30t-39 76zM188 201q4 -2 19 -2q37 0 50 25t13 77 q0 54 -13 78t-50 24q-13 0 -19 -2v-200zM377 154v297h155v-52h-96v-69h82v-49h-82v-78h96v-49h-155zM437 1128.5q-7 46.5 24 83.5q23 23 53 34t65 3.5t64 -35.5q38 -37 48.5 -102t-2.5 -131t-31.5 -126.5t-35.5 -98.5l-18 -39q20 191 -125 330q-35 35 -42 81.5zM571 154 q3 156 15 297h80l39 -164l38 164h82q3 -45 13 -297h-60q0 108 -6 213l-41 -168h-55l-41 168h-2q-4 -140 -4 -213h-58zM647 633q3 8 9 22t25 53.5t39 75.5t50 80.5t59.5 76t66 53.5t71.5 22q49 0 79.5 -24.5t39 -51t8.5 -53.5q0 -43 -34.5 -72.5t-72.5 -34.5 q-213 -23 -340 -147zM879 301q0 81 24 117.5t84 36.5t85.5 -37t25.5 -117q0 -79 -25.5 -115t-85.5 -36t-84 35.5t-24 115.5zM938 301q0 -54 10 -78t39 -24q30 0 40.5 24t10.5 78q0 55 -10 78.5t-41 23.5q-29 0 -39 -23.5t-10 -78.5z" />
<glyph unicode="`" d="M129 154v292q61 9 76 9q67 0 96 -37.5t29 -116.5t-29.5 -115t-97.5 -36q-47 0 -74 4zM158 780q0 53 33.5 91t93.5 38q39 0 78 -21t69.5 -55t58.5 -74.5t48 -81.5t35 -75t22 -55l8 -21q-117 148 -319 148q-49 0 -88 30t-39 76zM188 201q4 -2 19 -2q37 0 50 25t13 77 q0 54 -13 78t-50 24q-13 0 -19 -2v-200zM377 154v297h155v-52h-96v-69h82v-49h-82v-78h96v-49h-155zM437 1128.5q-7 46.5 24 83.5q23 23 53 34t65 3.5t64 -35.5q38 -37 48.5 -102t-2.5 -131t-31.5 -126.5t-35.5 -98.5l-18 -39q20 191 -125 330q-35 35 -42 81.5zM571 154 q3 156 15 297h80l39 -164l38 164h82q3 -45 13 -297h-60q0 108 -6 213l-41 -168h-55l-41 168h-2q-4 -140 -4 -213h-58zM647 633q3 8 9 22t25 53.5t39 75.5t50 80.5t59.5 76t66 53.5t71.5 22q49 0 79.5 -24.5t39 -51t8.5 -53.5q0 -43 -34.5 -72.5t-72.5 -34.5 q-213 -23 -340 -147zM879 301q0 81 24 117.5t84 36.5t85.5 -37t25.5 -117q0 -79 -25.5 -115t-85.5 -36t-84 35.5t-24 115.5zM938 301q0 -54 10 -78t39 -24q30 0 40.5 24t10.5 78q0 55 -10 78.5t-41 23.5q-29 0 -39 -23.5t-10 -78.5z" />
<glyph unicode="a" horiz-adv-x="1146" d="M82 330q0 153 104.5 249.5t259.5 96.5q99 0 175 -40t122 -95l-8 133q-9 164 -76.5 253t-181.5 89q-174 0 -319 -242h-11l66 275q26 -17 51.5 -21t50 -0.5t80.5 9t117 5.5q119 0 210 -33t146.5 -92t84.5 -133t34 -163l27 -486q5 -81 82 -127v-8h-316l-12 135 q-46 -62 -129 -111t-195 -49q-154 0 -258 101.5t-104 253.5zM322 332v-7q0 -109 63 -187q65 -81 172 -81q60 0 118 30.5t91 68.5l-21 352q-65 86 -198 86q-102 0 -163.5 -71t-61.5 -191z" />
<glyph unicode="b" horiz-adv-x="1271" d="M76 0v8q84 47 84 127v1223q0 77 -82 123v8h336v-592q122 143 307 143q206 0 336.5 -143.5t130.5 -386.5q0 -149 -64 -272.5t-171 -193t-232 -69.5q-188 0 -311 148v-123h-334zM414 143q92 -82 198 -82h2q142 0 223 124q81 125 81 323q0 193 -82 321q-82 127 -226 127h-2 q-105 -3 -194 -82v-731z" />
<glyph unicode="c" horiz-adv-x="1058" d="M82 487q0 112 40 213t111.5 177t177.5 120.5t230 44.5q49 0 109 -10q52 -9 87 -10h9q36 2 74 27l47 -320h-15q-19 42 -40.5 79.5t-51 75.5t-60.5 65.5t-70 45t-79 17.5q-144 0 -222.5 -122.5t-78.5 -330.5q0 -214 100 -339.5t265 -125.5q88 0 157.5 35t133.5 113l10 -9 q-61 -115 -165.5 -186.5t-250.5 -71.5q-225 0 -371.5 139t-146.5 373z" />
<glyph unicode="d" horiz-adv-x="1271" d="M84 508q0 113 37.5 212.5t101 169t149.5 110t179 40.5q185 0 307 -143v461q0 76 -84 123v8h338v-1354q0 -80 84 -127v-8h-334v123q-123 -148 -311 -148q-207 0 -337 145t-130 388zM354 508q0 -190 85.5 -313t232.5 -123q106 0 186 71v731q-84 72 -188 72 q-97 0 -169.5 -58.5t-109.5 -157t-37 -222.5z" />
<glyph unicode="e" horiz-adv-x="1120" d="M82 496q0 149 64 273.5t183 198.5t269 74q103 0 188.5 -37.5t140.5 -100t85 -140t32 -160.5v-24h-692v-5q0 -222 96.5 -351.5t270.5 -129.5q199 0 307 164l10 -8q-54 -119 -170 -197t-282 -78q-221 0 -361.5 141t-140.5 380zM352 610h463q-5 180 -62 293t-161 113 t-169 -108t-71 -298z" />
<glyph unicode="f" horiz-adv-x="716" d="M39 991v27h149v141q0 91 40 167.5t121.5 125.5t189.5 49q37 0 87 -11q47 -9 80 -9h6q35 1 72 26l47 -319h-14q-71 157 -117.5 219.5t-109.5 62.5q-53 0 -87.5 -40t-47.5 -96t-13 -126v-190h281v-27h-281v-860q0 -80 95 -123v-8h-431v8q77 46 82 113v870h-149z" />
<glyph unicode="g" horiz-adv-x="1058" d="M25 -223l14 24q198 -151 475 -151q152 0 242 57.5t90 153.5q0 99 -87 150.5t-249 51.5q-212 0 -377 -51l-12 17l260 377q-136 31 -221.5 116.5t-85.5 194.5q0 142 121 233.5t309 91.5q177 0 295 -75q-33 56 -33 116q0 109 119 193l96 -150q-154 -51 -154 -129 q0 -37 35 -84q74 -83 74 -196q0 -134 -126 -229t-306 -95q-55 0 -96 8l-132 -196l5 -2q66 27 136 41t183 14q201 0 316.5 -77.5t115.5 -211.5q0 -154 -146.5 -251t-377.5 -97q-270 0 -483 156zM309 707q0 -143 51 -216t144 -73q94 0 145 75.5t51 223.5q0 157 -49 230 t-147 73t-146.5 -74.5t-48.5 -238.5z" />
<glyph unicode="h" horiz-adv-x="1247" d="M74 1481v8h338v-608q148 161 323 161q182 0 271.5 -103t89.5 -294v-514q0 -77 82 -123v-8h-420v8q84 47 84 123v586q0 112 -55 176.5t-156 64.5q-18 0 -35 -2t-33 -7t-28.5 -9.5t-27 -13t-23.5 -13.5t-22 -15.5t-18 -14.5t-17.5 -14.5t-14.5 -12.5v-725q0 -76 84 -123v-8 h-420v8q82 46 82 123v1223q0 80 -84 127z" />
<glyph unicode="i" horiz-adv-x="583" d="M88 1008v10h338v-887q0 -76 84 -123v-8h-420v8q82 46 82 123v752q0 78 -84 125zM139 1364q0 62 46 108t110 46t110 -46t46 -108q0 -64 -46.5 -110t-109.5 -46q-64 0 -110 47t-46 109z" />
<glyph unicode="j" horiz-adv-x="555" d="M63 -420q38 41 65.5 139.5t27.5 208.5v955q0 78 -84 125v10h338v-971q0 -68 -22 -132.5t-52.5 -111t-80.5 -95.5t-87.5 -78.5t-91.5 -67.5zM115 1364q0 62 45 108t110 46q63 0 108.5 -46t45.5 -108q0 -64 -45.5 -110t-108.5 -46q-65 0 -110 46.5t-45 109.5z" />
<glyph unicode="k" horiz-adv-x="1153" d="M74 1481v8h338v-944l364 297q31 25 45 56.5t1.5 62t-54.5 47.5v10h322v-10q-127 -55 -244 -154l-168 -137l364 -596q10 -16 22.5 -30.5t22 -23.5t25 -20t21.5 -14.5t24 -13.5t21 -11v-8h-439v8q44 12 49 42q1 4 1 10q0 27 -25 67l-270 440l-82 -65v-371q0 -76 84 -123v-8 h-420v8q82 46 82 123v1223q0 80 -84 127z" />
<glyph unicode="l" horiz-adv-x="569" d="M74 1481v8h338v-1358q0 -76 84 -123v-8h-420v8q82 46 82 123v1223q0 80 -84 127z" />
<glyph unicode="m" horiz-adv-x="1865" d="M88 1008v10h326v-146l4 2q147 168 325 168q224 0 297 -178q163 178 342 178q168 0 250 -103t82 -294v-514q0 -77 82 -123v-8h-418v8q82 46 82 123l2 584q0 113 -47.5 176t-136.5 63q-32 0 -63.5 -8t-51.5 -16t-47.5 -26t-34.5 -24t-30 -24l-7 -2q31 -85 31 -199v-524 q0 -76 84 -123v-8h-420v8q82 48 82 111l2 596q0 113 -47.5 176t-136.5 63q-48 0 -94 -18.5t-67 -34t-52 -41.5v-729q0 -76 84 -123v-8h-420v8q82 46 82 123v752q0 78 -84 125z" />
<glyph unicode="n" horiz-adv-x="1261" d="M88 1008v10h334v-137q31 30 55 50t68.5 49.5t97.5 45.5t111 16q356 0 356 -389v-522q0 -77 82 -123v-8h-420v8q84 47 84 123v586q0 111 -55 175t-156 64q-107 0 -219 -96v-729q0 -76 84 -123v-8h-420v8q82 46 82 123v752q0 40 -23.5 72.5t-60.5 52.5z" />
<glyph unicode="o" horiz-adv-x="1271" d="M80 508q0 107 41.5 204.5t114 170.5t177.5 116t224 43q123 0 228 -42t176 -114t111 -170t40 -208q0 -103 -40.5 -199.5t-112 -170.5t-176.5 -118.5t-226 -44.5q-165 0 -293 72t-196 192.5t-68 268.5zM350 508q0 -126 32.5 -239.5t101 -190t159.5 -76.5q89 0 154 72.5 t95 185t30 248.5q0 129 -32 242.5t-100 189.5t-159 76q-89 0 -154.5 -72.5t-96 -185.5t-30.5 -250z" />
<glyph unicode="p" horiz-adv-x="1267" d="M72 1008v10h334v-125q123 147 311 147q206 0 336.5 -143.5t130.5 -386.5q0 -149 -64 -272.5t-171 -193t-232 -69.5q-184 0 -307 144v-352q0 -76 84 -123v-9h-420v9q82 46 82 123v1116q0 78 -84 125zM410 143q92 -82 198 -82h2q143 0 222 124q81 125 81 323q0 193 -82 321 q-81 127 -225 127h-2q-105 -3 -194 -82v-731z" />
<glyph unicode="q" horiz-adv-x="1267" d="M84 508q0 113 37.5 212.5t101 169t149.5 110t179 40.5q188 0 311 -147v125h334v-10q-84 -47 -84 -125v-1116q0 -77 82 -123v-9h-420v9q84 47 84 123v352q-123 -144 -307 -144q-207 0 -337 145t-130 388zM354 508q0 -190 85.5 -313t232.5 -123q106 0 186 71v731 q-84 72 -188 72q-146 0 -231 -123t-85 -315z" />
<glyph unicode="r" horiz-adv-x="845" d="M86 1008v10h332v-244q64 117 158 190.5t210 73.5v-290h-12q-32 108 -139 108q-101 0 -209 -100v-625q0 -75 82 -123v-8h-420v8q84 47 84 123v752q0 41 -25 73t-61 52z" />
<glyph unicode="s" horiz-adv-x="954" d="M63 293h15q73 -142 161 -215.5t214 -73.5q98 0 155.5 49.5t57.5 134.5q0 76 -55 131t-195 121q-168 83 -230.5 154.5t-62.5 171.5q0 123 94.5 199.5t245.5 76.5q58 0 116.5 -12t69.5 -12q65 0 86 35h2l72 -297h-12q-72 128 -144.5 192t-156.5 64q-67 0 -109.5 -36 t-42.5 -95q0 -70 50 -121t196 -119q159 -74 227 -154t68 -194q0 -140 -111 -229t-291 -89q-69 0 -147 13.5t-98 13.5q-61 0 -93 -37h-4z" />
<glyph unicode="t" horiz-adv-x="813" d="M27 985v33h170v168l239 162h15v-330h325v-33h-325v-672q0 -117 40.5 -170t126.5 -53q109 0 195 98l10 -8q-114 -200 -329 -200q-143 0 -220 82t-77 247v676h-170z" />
<glyph unicode="u" horiz-adv-x="1232" d="M68 1008v10h338v-717q0 -111 50.5 -175.5t137.5 -64.5q42 0 76.5 8.5t64.5 27.5t43.5 29.5t40.5 35.5v725q0 74 -84 121v10h338v-883q0 -80 84 -127v-8h-326v152q-150 -177 -329 -177q-176 0 -263 103.5t-87 294.5v514q0 74 -84 121z" />
<glyph unicode="v" horiz-adv-x="1079" d="M14 1008v10h451v-8q-78 -27 -78 -93q0 -30 16 -69l250 -594l232 559q17 41 17 75q0 82 -99 120v10h287v-10q-63 -25 -97.5 -64t-62.5 -108l-344 -836h-88l-359 848q-46 116 -125 160z" />
<glyph unicode="w" horiz-adv-x="1644" d="M10 1008v10h436v-8q-64 -27 -64 -89q0 -32 17 -73l248 -598l168 452l-51 146q-44 119 -115 160v10h441v-8q-53 -18 -69 -56q-7 -16 -7 -38q0 -29 12 -68l203 -592l213 557q17 42 17 76q0 81 -97 119v10h289v-10q-63 -25 -98.5 -65t-61.5 -107l-320 -836h-104l-233 651 l-242 -651h-105l-352 848q-46 116 -125 160z" />
<glyph unicode="x" horiz-adv-x="1067" d="M2 0v8q21 9 40.5 21.5t31 21t29 28.5t22.5 26t24 32t21 29l246 328l-252 358q-40 58 -74.5 96t-79.5 60v10h471v-8q-52 -18 -64 -57q-3 -10 -3 -20q0 -33 28 -77l189 -268l182 252q25 36 25 67q0 16 -6 31q-20 43 -87 70v10h285v-10q-22 -8 -41.5 -20.5t-32.5 -22.5 t-29 -28t-23 -27t-22 -30l-20 -28l-213 -289l279 -397q26 -38 44 -61t48.5 -52t62.5 -45v-8h-473v8q52 18 64 57q3 9 2 20q0 33 -27 77l-217 307l-215 -291q-24 -35 -24 -66q1 -16 7 -31q20 -44 85 -73v-8h-283z" />
<glyph unicode="y" horiz-adv-x="1071" d="M8 1008v10h449v-8q-56 -18 -75 -57q-8 -16 -8 -38q0 -29 15 -67l244 -576l244 564q15 31 15 60q0 25 -11 48q-23 49 -88 64v10h284v-10q-63 -25 -99.5 -66.5t-70.5 -114.5l-260 -594l2 -2l-14 -26l-260 -596h-10q-44 26 -134 43l-118 22v13q147 0 237.5 70.5t149.5 207.5 l10 25l-369 858q-53 120 -133 160z" />
<glyph unicode="z" horiz-adv-x="974" d="M72 0v43l542 948h-319q-54 0 -111.5 -52t-89.5 -124h-10v203h805v-41l-547 -950h350q53 0 111 52.5t90 123.5h10v-203h-831z" />
<glyph unicode="{" d="M129 154v292q61 9 76 9q67 0 96 -37.5t29 -116.5t-29.5 -115t-97.5 -36q-47 0 -74 4zM158 780q0 53 33.5 91t93.5 38q39 0 78 -21t69.5 -55t58.5 -74.5t48 -81.5t35 -75t22 -55l8 -21q-117 148 -319 148q-49 0 -88 30t-39 76zM188 201q4 -2 19 -2q37 0 50 25t13 77 q0 54 -13 78t-50 24q-13 0 -19 -2v-200zM377 154v297h155v-52h-96v-69h82v-49h-82v-78h96v-49h-155zM437 1128.5q-7 46.5 24 83.5q23 23 53 34t65 3.5t64 -35.5q38 -37 48.5 -102t-2.5 -131t-31.5 -126.5t-35.5 -98.5l-18 -39q20 191 -125 330q-35 35 -42 81.5zM571 154 q3 156 15 297h80l39 -164l38 164h82q3 -45 13 -297h-60q0 108 -6 213l-41 -168h-55l-41 168h-2q-4 -140 -4 -213h-58zM647 633q3 8 9 22t25 53.5t39 75.5t50 80.5t59.5 76t66 53.5t71.5 22q49 0 79.5 -24.5t39 -51t8.5 -53.5q0 -43 -34.5 -72.5t-72.5 -34.5 q-213 -23 -340 -147zM879 301q0 81 24 117.5t84 36.5t85.5 -37t25.5 -117q0 -79 -25.5 -115t-85.5 -36t-84 35.5t-24 115.5zM938 301q0 -54 10 -78t39 -24q30 0 40.5 24t10.5 78q0 55 -10 78.5t-41 23.5q-29 0 -39 -23.5t-10 -78.5z" />
<glyph unicode="|" d="M129 154v292q61 9 76 9q67 0 96 -37.5t29 -116.5t-29.5 -115t-97.5 -36q-47 0 -74 4zM158 780q0 53 33.5 91t93.5 38q39 0 78 -21t69.5 -55t58.5 -74.5t48 -81.5t35 -75t22 -55l8 -21q-117 148 -319 148q-49 0 -88 30t-39 76zM188 201q4 -2 19 -2q37 0 50 25t13 77 q0 54 -13 78t-50 24q-13 0 -19 -2v-200zM377 154v297h155v-52h-96v-69h82v-49h-82v-78h96v-49h-155zM437 1128.5q-7 46.5 24 83.5q23 23 53 34t65 3.5t64 -35.5q38 -37 48.5 -102t-2.5 -131t-31.5 -126.5t-35.5 -98.5l-18 -39q20 191 -125 330q-35 35 -42 81.5zM571 154 q3 156 15 297h80l39 -164l38 164h82q3 -45 13 -297h-60q0 108 -6 213l-41 -168h-55l-41 168h-2q-4 -140 -4 -213h-58zM647 633q3 8 9 22t25 53.5t39 75.5t50 80.5t59.5 76t66 53.5t71.5 22q49 0 79.5 -24.5t39 -51t8.5 -53.5q0 -43 -34.5 -72.5t-72.5 -34.5 q-213 -23 -340 -147zM879 301q0 81 24 117.5t84 36.5t85.5 -37t25.5 -117q0 -79 -25.5 -115t-85.5 -36t-84 35.5t-24 115.5zM938 301q0 -54 10 -78t39 -24q30 0 40.5 24t10.5 78q0 55 -10 78.5t-41 23.5q-29 0 -39 -23.5t-10 -78.5z" />
<glyph unicode="}" d="M129 154v292q61 9 76 9q67 0 96 -37.5t29 -116.5t-29.5 -115t-97.5 -36q-47 0 -74 4zM158 780q0 53 33.5 91t93.5 38q39 0 78 -21t69.5 -55t58.5 -74.5t48 -81.5t35 -75t22 -55l8 -21q-117 148 -319 148q-49 0 -88 30t-39 76zM188 201q4 -2 19 -2q37 0 50 25t13 77 q0 54 -13 78t-50 24q-13 0 -19 -2v-200zM377 154v297h155v-52h-96v-69h82v-49h-82v-78h96v-49h-155zM437 1128.5q-7 46.5 24 83.5q23 23 53 34t65 3.5t64 -35.5q38 -37 48.5 -102t-2.5 -131t-31.5 -126.5t-35.5 -98.5l-18 -39q20 191 -125 330q-35 35 -42 81.5zM571 154 q3 156 15 297h80l39 -164l38 164h82q3 -45 13 -297h-60q0 108 -6 213l-41 -168h-55l-41 168h-2q-4 -140 -4 -213h-58zM647 633q3 8 9 22t25 53.5t39 75.5t50 80.5t59.5 76t66 53.5t71.5 22q49 0 79.5 -24.5t39 -51t8.5 -53.5q0 -43 -34.5 -72.5t-72.5 -34.5 q-213 -23 -340 -147zM879 301q0 81 24 117.5t84 36.5t85.5 -37t25.5 -117q0 -79 -25.5 -115t-85.5 -36t-84 35.5t-24 115.5zM938 301q0 -54 10 -78t39 -24q30 0 40.5 24t10.5 78q0 55 -10 78.5t-41 23.5q-29 0 -39 -23.5t-10 -78.5z" />
<glyph unicode="~" d="M129 154v292q61 9 76 9q67 0 96 -37.5t29 -116.5t-29.5 -115t-97.5 -36q-47 0 -74 4zM158 780q0 53 33.5 91t93.5 38q39 0 78 -21t69.5 -55t58.5 -74.5t48 -81.5t35 -75t22 -55l8 -21q-117 148 -319 148q-49 0 -88 30t-39 76zM188 201q4 -2 19 -2q37 0 50 25t13 77 q0 54 -13 78t-50 24q-13 0 -19 -2v-200zM377 154v297h155v-52h-96v-69h82v-49h-82v-78h96v-49h-155zM437 1128.5q-7 46.5 24 83.5q23 23 53 34t65 3.5t64 -35.5q38 -37 48.5 -102t-2.5 -131t-31.5 -126.5t-35.5 -98.5l-18 -39q20 191 -125 330q-35 35 -42 81.5zM571 154 q3 156 15 297h80l39 -164l38 164h82q3 -45 13 -297h-60q0 108 -6 213l-41 -168h-55l-41 168h-2q-4 -140 -4 -213h-58zM647 633q3 8 9 22t25 53.5t39 75.5t50 80.5t59.5 76t66 53.5t71.5 22q49 0 79.5 -24.5t39 -51t8.5 -53.5q0 -43 -34.5 -72.5t-72.5 -34.5 q-213 -23 -340 -147zM879 301q0 81 24 117.5t84 36.5t85.5 -37t25.5 -117q0 -79 -25.5 -115t-85.5 -36t-84 35.5t-24 115.5zM938 301q0 -54 10 -78t39 -24q30 0 40.5 24t10.5 78q0 55 -10 78.5t-41 23.5q-29 0 -39 -23.5t-10 -78.5z" />
<glyph unicode="&#xad;" d="M129 154v292q61 9 76 9q67 0 96 -37.5t29 -116.5t-29.5 -115t-97.5 -36q-47 0 -74 4zM158 780q0 53 33.5 91t93.5 38q39 0 78 -21t69.5 -55t58.5 -74.5t48 -81.5t35 -75t22 -55l8 -21q-117 148 -319 148q-49 0 -88 30t-39 76zM188 201q4 -2 19 -2q37 0 50 25t13 77 q0 54 -13 78t-50 24q-13 0 -19 -2v-200zM377 154v297h155v-52h-96v-69h82v-49h-82v-78h96v-49h-155zM437 1128.5q-7 46.5 24 83.5q23 23 53 34t65 3.5t64 -35.5q38 -37 48.5 -102t-2.5 -131t-31.5 -126.5t-35.5 -98.5l-18 -39q20 191 -125 330q-35 35 -42 81.5zM571 154 q3 156 15 297h80l39 -164l38 164h82q3 -45 13 -297h-60q0 108 -6 213l-41 -168h-55l-41 168h-2q-4 -140 -4 -213h-58zM647 633q3 8 9 22t25 53.5t39 75.5t50 80.5t59.5 76t66 53.5t71.5 22q49 0 79.5 -24.5t39 -51t8.5 -53.5q0 -43 -34.5 -72.5t-72.5 -34.5 q-213 -23 -340 -147zM879 301q0 81 24 117.5t84 36.5t85.5 -37t25.5 -117q0 -79 -25.5 -115t-85.5 -36t-84 35.5t-24 115.5zM938 301q0 -54 10 -78t39 -24q30 0 40.5 24t10.5 78q0 55 -10 78.5t-41 23.5q-29 0 -39 -23.5t-10 -78.5z" />
<glyph unicode="&#x2000;" horiz-adv-x="771" />
<glyph unicode="&#x2001;" horiz-adv-x="1542" />
<glyph unicode="&#x2002;" horiz-adv-x="771" />
<glyph unicode="&#x2003;" horiz-adv-x="1542" />
<glyph unicode="&#x2004;" horiz-adv-x="514" />
<glyph unicode="&#x2005;" horiz-adv-x="385" />
<glyph unicode="&#x2006;" horiz-adv-x="257" />
<glyph unicode="&#x2007;" horiz-adv-x="257" />
<glyph unicode="&#x2008;" horiz-adv-x="192" />
<glyph unicode="&#x2009;" horiz-adv-x="308" />
<glyph unicode="&#x200a;" horiz-adv-x="85" />
<glyph unicode="&#x2010;" d="M129 154v292q61 9 76 9q67 0 96 -37.5t29 -116.5t-29.5 -115t-97.5 -36q-47 0 -74 4zM158 780q0 53 33.5 91t93.5 38q39 0 78 -21t69.5 -55t58.5 -74.5t48 -81.5t35 -75t22 -55l8 -21q-117 148 -319 148q-49 0 -88 30t-39 76zM188 201q4 -2 19 -2q37 0 50 25t13 77 q0 54 -13 78t-50 24q-13 0 -19 -2v-200zM377 154v297h155v-52h-96v-69h82v-49h-82v-78h96v-49h-155zM437 1128.5q-7 46.5 24 83.5q23 23 53 34t65 3.5t64 -35.5q38 -37 48.5 -102t-2.5 -131t-31.5 -126.5t-35.5 -98.5l-18 -39q20 191 -125 330q-35 35 -42 81.5zM571 154 q3 156 15 297h80l39 -164l38 164h82q3 -45 13 -297h-60q0 108 -6 213l-41 -168h-55l-41 168h-2q-4 -140 -4 -213h-58zM647 633q3 8 9 22t25 53.5t39 75.5t50 80.5t59.5 76t66 53.5t71.5 22q49 0 79.5 -24.5t39 -51t8.5 -53.5q0 -43 -34.5 -72.5t-72.5 -34.5 q-213 -23 -340 -147zM879 301q0 81 24 117.5t84 36.5t85.5 -37t25.5 -117q0 -79 -25.5 -115t-85.5 -36t-84 35.5t-24 115.5zM938 301q0 -54 10 -78t39 -24q30 0 40.5 24t10.5 78q0 55 -10 78.5t-41 23.5q-29 0 -39 -23.5t-10 -78.5z" />
<glyph unicode="&#x2011;" d="M129 154v292q61 9 76 9q67 0 96 -37.5t29 -116.5t-29.5 -115t-97.5 -36q-47 0 -74 4zM158 780q0 53 33.5 91t93.5 38q39 0 78 -21t69.5 -55t58.5 -74.5t48 -81.5t35 -75t22 -55l8 -21q-117 148 -319 148q-49 0 -88 30t-39 76zM188 201q4 -2 19 -2q37 0 50 25t13 77 q0 54 -13 78t-50 24q-13 0 -19 -2v-200zM377 154v297h155v-52h-96v-69h82v-49h-82v-78h96v-49h-155zM437 1128.5q-7 46.5 24 83.5q23 23 53 34t65 3.5t64 -35.5q38 -37 48.5 -102t-2.5 -131t-31.5 -126.5t-35.5 -98.5l-18 -39q20 191 -125 330q-35 35 -42 81.5zM571 154 q3 156 15 297h80l39 -164l38 164h82q3 -45 13 -297h-60q0 108 -6 213l-41 -168h-55l-41 168h-2q-4 -140 -4 -213h-58zM647 633q3 8 9 22t25 53.5t39 75.5t50 80.5t59.5 76t66 53.5t71.5 22q49 0 79.5 -24.5t39 -51t8.5 -53.5q0 -43 -34.5 -72.5t-72.5 -34.5 q-213 -23 -340 -147zM879 301q0 81 24 117.5t84 36.5t85.5 -37t25.5 -117q0 -79 -25.5 -115t-85.5 -36t-84 35.5t-24 115.5zM938 301q0 -54 10 -78t39 -24q30 0 40.5 24t10.5 78q0 55 -10 78.5t-41 23.5q-29 0 -39 -23.5t-10 -78.5z" />
<glyph unicode="&#x2012;" d="M129 154v292q61 9 76 9q67 0 96 -37.5t29 -116.5t-29.5 -115t-97.5 -36q-47 0 -74 4zM158 780q0 53 33.5 91t93.5 38q39 0 78 -21t69.5 -55t58.5 -74.5t48 -81.5t35 -75t22 -55l8 -21q-117 148 -319 148q-49 0 -88 30t-39 76zM188 201q4 -2 19 -2q37 0 50 25t13 77 q0 54 -13 78t-50 24q-13 0 -19 -2v-200zM377 154v297h155v-52h-96v-69h82v-49h-82v-78h96v-49h-155zM437 1128.5q-7 46.5 24 83.5q23 23 53 34t65 3.5t64 -35.5q38 -37 48.5 -102t-2.5 -131t-31.5 -126.5t-35.5 -98.5l-18 -39q20 191 -125 330q-35 35 -42 81.5zM571 154 q3 156 15 297h80l39 -164l38 164h82q3 -45 13 -297h-60q0 108 -6 213l-41 -168h-55l-41 168h-2q-4 -140 -4 -213h-58zM647 633q3 8 9 22t25 53.5t39 75.5t50 80.5t59.5 76t66 53.5t71.5 22q49 0 79.5 -24.5t39 -51t8.5 -53.5q0 -43 -34.5 -72.5t-72.5 -34.5 q-213 -23 -340 -147zM879 301q0 81 24 117.5t84 36.5t85.5 -37t25.5 -117q0 -79 -25.5 -115t-85.5 -36t-84 35.5t-24 115.5zM938 301q0 -54 10 -78t39 -24q30 0 40.5 24t10.5 78q0 55 -10 78.5t-41 23.5q-29 0 -39 -23.5t-10 -78.5z" />
<glyph unicode="&#x2013;" horiz-adv-x="1279" d="M129 154v292q64 9 80 9q71 0 101.5 -37.5t30.5 -116.5t-31 -115t-103 -36q-49 0 -78 4zM160 780q0 53 35 91t99 38q41 0 82 -21t73.5 -55t62 -74.5t50.5 -81.5t37 -75t24 -55l8 -21q-124 148 -337 148q-52 0 -93 30t-41 76zM191 201q5 -2 20 -2q40 0 53.5 25t13.5 77 q0 54 -13.5 78t-53.5 24q-13 0 -20 -2v-200zM391 154v297h164v-52h-102v-69h87v-49h-87v-78h102v-49h-164zM454.5 1128.5q-7.5 46.5 25.5 83.5q24 23 56 34t69 3.5t67 -35.5q40 -37 51.5 -102t-2.5 -131t-33.5 -126.5t-37.5 -98.5l-19 -39q21 191 -132 330 q-37 35 -44.5 81.5zM596 154q3 156 16 297h84l42 -164l40 164h87q3 -45 13 -297h-63q0 108 -7 213l-43 -168h-58l-43 168h-2q-5 -140 -5 -213h-61zM676 633q4 8 10 22t26 53.5t41.5 75.5t53 80.5t62.5 76t70 53.5t76 22q51 0 83.5 -24.5t41.5 -51t9 -53.5q0 -43 -36.5 -72.5 t-76.5 -34.5q-225 -23 -360 -147zM922 301q0 81 25 117.5t88.5 36.5t90.5 -37t27 -117q0 -79 -27 -115t-90.5 -36t-88.5 35.5t-25 115.5zM984 301q0 -54 10.5 -78t41.5 -24t42.5 24t11.5 78q0 55 -11 78.5t-43 23.5q-31 0 -41.5 -23.5t-10.5 -78.5z" />
<glyph unicode="&#x2014;" horiz-adv-x="2303" d="M129 154v292q129 9 161 9q141 0 202.5 -37.5t61.5 -116.5t-62.5 -115t-206.5 -36q-99 0 -156 4zM190 780q0 53 71 91t198 38q82 0 164.5 -21t147 -55t123.5 -74.5t101.5 -81.5t74 -75t46.5 -55l17 -21q-247 148 -674 148q-104 0 -186.5 30t-82.5 76zM254 201q8 -2 40 -2 q78 0 105.5 25t27.5 77q0 54 -27.5 78t-105.5 24q-28 0 -40 -2v-200zM653 154v297h328v-52h-203v-69h173v-49h-173v-78h203v-49h-328zM780 1128.5q-15 46.5 51 83.5q48 23 111.5 34t137.5 3.5t135 -35.5q81 -37 103 -102t-5.5 -131t-66.5 -126.5t-75 -98.5l-38 -39 q42 191 -264 330q-74 35 -89 81.5zM1063 154q7 156 32 297h169l82 -164l81 164h173q6 -45 27 -297h-126q0 108 -13 213l-87 -168h-116l-87 168h-4q-8 -140 -8 -213h-123zM1224 633q6 8 19 22t53 53.5t82 75.5t105.5 80.5t126 76t139.5 53.5t151 22q104 0 168.5 -24.5 t82.5 -51t18 -53.5q0 -43 -73 -72.5t-154 -34.5q-450 -23 -718 -147zM1714 301q0 81 51 117.5t177.5 36.5t180.5 -37t54 -117q0 -79 -54 -115t-180.5 -36t-177.5 35.5t-51 115.5zM1839 301q0 -54 21 -78t82 -24q64 0 86 24t22 78q0 55 -21 78.5t-87 23.5q-61 0 -82 -23.5 t-21 -78.5z" />
<glyph unicode="&#x202f;" horiz-adv-x="308" />
<glyph unicode="&#x205f;" horiz-adv-x="385" />
<glyph unicode="&#x25fc;" horiz-adv-x="1013" d="M0 0v1014h1014v-1014h-1014z" />
</font>
</defs>
</svg>
