<?xml version="1.0" standalone="no"?>
<!DOCTYPE svg PUBLIC "-//W3C//DTD SVG 1.1//EN" "http://www.w3.org/Graphics/SVG/1.1/DTD/svg11.dtd" >
<svg xmlns="http://www.w3.org/2000/svg" xmlns:xlink="http://www.w3.org/1999/xlink" version="1.1">
<metadata></metadata>
<defs>
<font id="hernandez_brosmedium" horiz-adv-x="1224" >
<font-face units-per-em="2048" ascent="1638" descent="-410" />
<missing-glyph horiz-adv-x="499" />
<glyph horiz-adv-x="0" />
<glyph horiz-adv-x="682" />
<glyph unicode=" "  horiz-adv-x="499" />
<glyph unicode="&#x09;" horiz-adv-x="499" />
<glyph unicode="&#xa0;" horiz-adv-x="499" />
<glyph unicode="!" d="M129 154v292q61 9 76 9q67 0 96 -37.5t29 -116.5t-29.5 -115t-97.5 -36q-47 0 -74 4zM158 780q0 53 33.5 91t93.5 38q39 0 78 -21t69.5 -55t58.5 -74.5t48 -81.5t35 -75t22 -55l8 -21q-117 148 -319 148q-49 0 -88 30t-39 76zM188 201q4 -2 19 -2q37 0 50 25t13 77 q0 54 -13 78t-50 24q-13 0 -19 -2v-200zM377 154v297h155v-52h-96v-69h82v-49h-82v-78h96v-49h-155zM437 1128.5q-7 46.5 24 83.5q23 23 53 34t65 3.5t64 -35.5q38 -37 48.5 -102t-2.5 -131t-31.5 -126.5t-35.5 -98.5l-18 -39q20 191 -125 330q-35 35 -42 81.5zM571 154 q3 156 15 297h80l39 -164l38 164h82q3 -45 13 -297h-60q0 108 -6 213l-41 -168h-55l-41 168h-2q-4 -140 -4 -213h-58zM647 633q3 8 9 22t25 53.5t39 75.5t50 80.5t59.5 76t66 53.5t71.5 22q49 0 79.5 -24.5t39 -51t8.5 -53.5q0 -43 -34.5 -72.5t-72.5 -34.5 q-213 -23 -340 -147zM879 301q0 81 24 117.5t84 36.5t85.5 -37t25.5 -117q0 -79 -25.5 -115t-85.5 -36t-84 35.5t-24 115.5zM938 301q0 -54 10 -78t39 -24q30 0 40.5 24t10.5 78q0 55 -10 78.5t-41 23.5q-29 0 -39 -23.5t-10 -78.5z" />
<glyph unicode="&#x22;" d="M129 154v292q61 9 76 9q67 0 96 -37.5t29 -116.5t-29.5 -115t-97.5 -36q-47 0 -74 4zM158 780q0 53 33.5 91t93.5 38q39 0 78 -21t69.5 -55t58.5 -74.5t48 -81.5t35 -75t22 -55l8 -21q-117 148 -319 148q-49 0 -88 30t-39 76zM188 201q4 -2 19 -2q37 0 50 25t13 77 q0 54 -13 78t-50 24q-13 0 -19 -2v-200zM377 154v297h155v-52h-96v-69h82v-49h-82v-78h96v-49h-155zM437 1128.5q-7 46.5 24 83.5q23 23 53 34t65 3.5t64 -35.5q38 -37 48.5 -102t-2.5 -131t-31.5 -126.5t-35.5 -98.5l-18 -39q20 191 -125 330q-35 35 -42 81.5zM571 154 q3 156 15 297h80l39 -164l38 164h82q3 -45 13 -297h-60q0 108 -6 213l-41 -168h-55l-41 168h-2q-4 -140 -4 -213h-58zM647 633q3 8 9 22t25 53.5t39 75.5t50 80.5t59.5 76t66 53.5t71.5 22q49 0 79.5 -24.5t39 -51t8.5 -53.5q0 -43 -34.5 -72.5t-72.5 -34.5 q-213 -23 -340 -147zM879 301q0 81 24 117.5t84 36.5t85.5 -37t25.5 -117q0 -79 -25.5 -115t-85.5 -36t-84 35.5t-24 115.5zM938 301q0 -54 10 -78t39 -24q30 0 40.5 24t10.5 78q0 55 -10 78.5t-41 23.5q-29 0 -39 -23.5t-10 -78.5z" />
<glyph unicode="#" d="M129 154v292q61 9 76 9q67 0 96 -37.5t29 -116.5t-29.5 -115t-97.5 -36q-47 0 -74 4zM158 780q0 53 33.5 91t93.5 38q39 0 78 -21t69.5 -55t58.5 -74.5t48 -81.5t35 -75t22 -55l8 -21q-117 148 -319 148q-49 0 -88 30t-39 76zM188 201q4 -2 19 -2q37 0 50 25t13 77 q0 54 -13 78t-50 24q-13 0 -19 -2v-200zM377 154v297h155v-52h-96v-69h82v-49h-82v-78h96v-49h-155zM437 1128.5q-7 46.5 24 83.5q23 23 53 34t65 3.5t64 -35.5q38 -37 48.5 -102t-2.5 -131t-31.5 -126.5t-35.5 -98.5l-18 -39q20 191 -125 330q-35 35 -42 81.5zM571 154 q3 156 15 297h80l39 -164l38 164h82q3 -45 13 -297h-60q0 108 -6 213l-41 -168h-55l-41 168h-2q-4 -140 -4 -213h-58zM647 633q3 8 9 22t25 53.5t39 75.5t50 80.5t59.5 76t66 53.5t71.5 22q49 0 79.5 -24.5t39 -51t8.5 -53.5q0 -43 -34.5 -72.5t-72.5 -34.5 q-213 -23 -340 -147zM879 301q0 81 24 117.5t84 36.5t85.5 -37t25.5 -117q0 -79 -25.5 -115t-85.5 -36t-84 35.5t-24 115.5zM938 301q0 -54 10 -78t39 -24q30 0 40.5 24t10.5 78q0 55 -10 78.5t-41 23.5q-29 0 -39 -23.5t-10 -78.5z" />
<glyph unicode="$" d="M129 154v292q61 9 76 9q67 0 96 -37.5t29 -116.5t-29.5 -115t-97.5 -36q-47 0 -74 4zM158 780q0 53 33.5 91t93.5 38q39 0 78 -21t69.5 -55t58.5 -74.5t48 -81.5t35 -75t22 -55l8 -21q-117 148 -319 148q-49 0 -88 30t-39 76zM188 201q4 -2 19 -2q37 0 50 25t13 77 q0 54 -13 78t-50 24q-13 0 -19 -2v-200zM377 154v297h155v-52h-96v-69h82v-49h-82v-78h96v-49h-155zM437 1128.5q-7 46.5 24 83.5q23 23 53 34t65 3.5t64 -35.5q38 -37 48.5 -102t-2.5 -131t-31.5 -126.5t-35.5 -98.5l-18 -39q20 191 -125 330q-35 35 -42 81.5zM571 154 q3 156 15 297h80l39 -164l38 164h82q3 -45 13 -297h-60q0 108 -6 213l-41 -168h-55l-41 168h-2q-4 -140 -4 -213h-58zM647 633q3 8 9 22t25 53.5t39 75.5t50 80.5t59.5 76t66 53.5t71.5 22q49 0 79.5 -24.5t39 -51t8.5 -53.5q0 -43 -34.5 -72.5t-72.5 -34.5 q-213 -23 -340 -147zM879 301q0 81 24 117.5t84 36.5t85.5 -37t25.5 -117q0 -79 -25.5 -115t-85.5 -36t-84 35.5t-24 115.5zM938 301q0 -54 10 -78t39 -24q30 0 40.5 24t10.5 78q0 55 -10 78.5t-41 23.5q-29 0 -39 -23.5t-10 -78.5z" />
<glyph unicode="%" d="M129 154v292q61 9 76 9q67 0 96 -37.5t29 -116.5t-29.5 -115t-97.5 -36q-47 0 -74 4zM158 780q0 53 33.5 91t93.5 38q39 0 78 -21t69.5 -55t58.5 -74.5t48 -81.5t35 -75t22 -55l8 -21q-117 148 -319 148q-49 0 -88 30t-39 76zM188 201q4 -2 19 -2q37 0 50 25t13 77 q0 54 -13 78t-50 24q-13 0 -19 -2v-200zM377 154v297h155v-52h-96v-69h82v-49h-82v-78h96v-49h-155zM437 1128.5q-7 46.5 24 83.5q23 23 53 34t65 3.5t64 -35.5q38 -37 48.5 -102t-2.5 -131t-31.5 -126.5t-35.5 -98.5l-18 -39q20 191 -125 330q-35 35 -42 81.5zM571 154 q3 156 15 297h80l39 -164l38 164h82q3 -45 13 -297h-60q0 108 -6 213l-41 -168h-55l-41 168h-2q-4 -140 -4 -213h-58zM647 633q3 8 9 22t25 53.5t39 75.5t50 80.5t59.5 76t66 53.5t71.5 22q49 0 79.5 -24.5t39 -51t8.5 -53.5q0 -43 -34.5 -72.5t-72.5 -34.5 q-213 -23 -340 -147zM879 301q0 81 24 117.5t84 36.5t85.5 -37t25.5 -117q0 -79 -25.5 -115t-85.5 -36t-84 35.5t-24 115.5zM938 301q0 -54 10 -78t39 -24q30 0 40.5 24t10.5 78q0 55 -10 78.5t-41 23.5q-29 0 -39 -23.5t-10 -78.5z" />
<glyph unicode="&#x26;" d="M129 154v292q61 9 76 9q67 0 96 -37.5t29 -116.5t-29.5 -115t-97.5 -36q-47 0 -74 4zM158 780q0 53 33.5 91t93.5 38q39 0 78 -21t69.5 -55t58.5 -74.5t48 -81.5t35 -75t22 -55l8 -21q-117 148 -319 148q-49 0 -88 30t-39 76zM188 201q4 -2 19 -2q37 0 50 25t13 77 q0 54 -13 78t-50 24q-13 0 -19 -2v-200zM377 154v297h155v-52h-96v-69h82v-49h-82v-78h96v-49h-155zM437 1128.5q-7 46.5 24 83.5q23 23 53 34t65 3.5t64 -35.5q38 -37 48.5 -102t-2.5 -131t-31.5 -126.5t-35.5 -98.5l-18 -39q20 191 -125 330q-35 35 -42 81.5zM571 154 q3 156 15 297h80l39 -164l38 164h82q3 -45 13 -297h-60q0 108 -6 213l-41 -168h-55l-41 168h-2q-4 -140 -4 -213h-58zM647 633q3 8 9 22t25 53.5t39 75.5t50 80.5t59.5 76t66 53.5t71.5 22q49 0 79.5 -24.5t39 -51t8.5 -53.5q0 -43 -34.5 -72.5t-72.5 -34.5 q-213 -23 -340 -147zM879 301q0 81 24 117.5t84 36.5t85.5 -37t25.5 -117q0 -79 -25.5 -115t-85.5 -36t-84 35.5t-24 115.5zM938 301q0 -54 10 -78t39 -24q30 0 40.5 24t10.5 78q0 55 -10 78.5t-41 23.5q-29 0 -39 -23.5t-10 -78.5z" />
<glyph unicode="'" d="M129 154v292q61 9 76 9q67 0 96 -37.5t29 -116.5t-29.5 -115t-97.5 -36q-47 0 -74 4zM158 780q0 53 33.5 91t93.5 38q39 0 78 -21t69.5 -55t58.5 -74.5t48 -81.5t35 -75t22 -55l8 -21q-117 148 -319 148q-49 0 -88 30t-39 76zM188 201q4 -2 19 -2q37 0 50 25t13 77 q0 54 -13 78t-50 24q-13 0 -19 -2v-200zM377 154v297h155v-52h-96v-69h82v-49h-82v-78h96v-49h-155zM437 1128.5q-7 46.5 24 83.5q23 23 53 34t65 3.5t64 -35.5q38 -37 48.5 -102t-2.5 -131t-31.5 -126.5t-35.5 -98.5l-18 -39q20 191 -125 330q-35 35 -42 81.5zM571 154 q3 156 15 297h80l39 -164l38 164h82q3 -45 13 -297h-60q0 108 -6 213l-41 -168h-55l-41 168h-2q-4 -140 -4 -213h-58zM647 633q3 8 9 22t25 53.5t39 75.5t50 80.5t59.5 76t66 53.5t71.5 22q49 0 79.5 -24.5t39 -51t8.5 -53.5q0 -43 -34.5 -72.5t-72.5 -34.5 q-213 -23 -340 -147zM879 301q0 81 24 117.5t84 36.5t85.5 -37t25.5 -117q0 -79 -25.5 -115t-85.5 -36t-84 35.5t-24 115.5zM938 301q0 -54 10 -78t39 -24q30 0 40.5 24t10.5 78q0 55 -10 78.5t-41 23.5q-29 0 -39 -23.5t-10 -78.5z" />
<glyph unicode="(" d="M129 154v292q61 9 76 9q67 0 96 -37.5t29 -116.5t-29.5 -115t-97.5 -36q-47 0 -74 4zM158 780q0 53 33.5 91t93.5 38q39 0 78 -21t69.5 -55t58.5 -74.5t48 -81.5t35 -75t22 -55l8 -21q-117 148 -319 148q-49 0 -88 30t-39 76zM188 201q4 -2 19 -2q37 0 50 25t13 77 q0 54 -13 78t-50 24q-13 0 -19 -2v-200zM377 154v297h155v-52h-96v-69h82v-49h-82v-78h96v-49h-155zM437 1128.5q-7 46.5 24 83.5q23 23 53 34t65 3.5t64 -35.5q38 -37 48.5 -102t-2.5 -131t-31.5 -126.5t-35.5 -98.5l-18 -39q20 191 -125 330q-35 35 -42 81.5zM571 154 q3 156 15 297h80l39 -164l38 164h82q3 -45 13 -297h-60q0 108 -6 213l-41 -168h-55l-41 168h-2q-4 -140 -4 -213h-58zM647 633q3 8 9 22t25 53.5t39 75.5t50 80.5t59.5 76t66 53.5t71.5 22q49 0 79.5 -24.5t39 -51t8.5 -53.5q0 -43 -34.5 -72.5t-72.5 -34.5 q-213 -23 -340 -147zM879 301q0 81 24 117.5t84 36.5t85.5 -37t25.5 -117q0 -79 -25.5 -115t-85.5 -36t-84 35.5t-24 115.5zM938 301q0 -54 10 -78t39 -24q30 0 40.5 24t10.5 78q0 55 -10 78.5t-41 23.5q-29 0 -39 -23.5t-10 -78.5z" />
<glyph unicode=")" d="M129 154v292q61 9 76 9q67 0 96 -37.5t29 -116.5t-29.5 -115t-97.5 -36q-47 0 -74 4zM158 780q0 53 33.5 91t93.5 38q39 0 78 -21t69.5 -55t58.5 -74.5t48 -81.5t35 -75t22 -55l8 -21q-117 148 -319 148q-49 0 -88 30t-39 76zM188 201q4 -2 19 -2q37 0 50 25t13 77 q0 54 -13 78t-50 24q-13 0 -19 -2v-200zM377 154v297h155v-52h-96v-69h82v-49h-82v-78h96v-49h-155zM437 1128.5q-7 46.5 24 83.5q23 23 53 34t65 3.5t64 -35.5q38 -37 48.5 -102t-2.5 -131t-31.5 -126.5t-35.5 -98.5l-18 -39q20 191 -125 330q-35 35 -42 81.5zM571 154 q3 156 15 297h80l39 -164l38 164h82q3 -45 13 -297h-60q0 108 -6 213l-41 -168h-55l-41 168h-2q-4 -140 -4 -213h-58zM647 633q3 8 9 22t25 53.5t39 75.5t50 80.5t59.5 76t66 53.5t71.5 22q49 0 79.5 -24.5t39 -51t8.5 -53.5q0 -43 -34.5 -72.5t-72.5 -34.5 q-213 -23 -340 -147zM879 301q0 81 24 117.5t84 36.5t85.5 -37t25.5 -117q0 -79 -25.5 -115t-85.5 -36t-84 35.5t-24 115.5zM938 301q0 -54 10 -78t39 -24q30 0 40.5 24t10.5 78q0 55 -10 78.5t-41 23.5q-29 0 -39 -23.5t-10 -78.5z" />
<glyph unicode="*" d="M129 154v292q61 9 76 9q67 0 96 -37.5t29 -116.5t-29.5 -115t-97.5 -36q-47 0 -74 4zM158 780q0 53 33.5 91t93.5 38q39 0 78 -21t69.5 -55t58.5 -74.5t48 -81.5t35 -75t22 -55l8 -21q-117 148 -319 148q-49 0 -88 30t-39 76zM188 201q4 -2 19 -2q37 0 50 25t13 77 q0 54 -13 78t-50 24q-13 0 -19 -2v-200zM377 154v297h155v-52h-96v-69h82v-49h-82v-78h96v-49h-155zM437 1128.5q-7 46.5 24 83.5q23 23 53 34t65 3.5t64 -35.5q38 -37 48.5 -102t-2.5 -131t-31.5 -126.5t-35.5 -98.5l-18 -39q20 191 -125 330q-35 35 -42 81.5zM571 154 q3 156 15 297h80l39 -164l38 164h82q3 -45 13 -297h-60q0 108 -6 213l-41 -168h-55l-41 168h-2q-4 -140 -4 -213h-58zM647 633q3 8 9 22t25 53.5t39 75.5t50 80.5t59.5 76t66 53.5t71.5 22q49 0 79.5 -24.5t39 -51t8.5 -53.5q0 -43 -34.5 -72.5t-72.5 -34.5 q-213 -23 -340 -147zM879 301q0 81 24 117.5t84 36.5t85.5 -37t25.5 -117q0 -79 -25.5 -115t-85.5 -36t-84 35.5t-24 115.5zM938 301q0 -54 10 -78t39 -24q30 0 40.5 24t10.5 78q0 55 -10 78.5t-41 23.5q-29 0 -39 -23.5t-10 -78.5z" />
<glyph unicode="+" d="M129 154v292q61 9 76 9q67 0 96 -37.5t29 -116.5t-29.5 -115t-97.5 -36q-47 0 -74 4zM158 780q0 53 33.5 91t93.5 38q39 0 78 -21t69.5 -55t58.5 -74.5t48 -81.5t35 -75t22 -55l8 -21q-117 148 -319 148q-49 0 -88 30t-39 76zM188 201q4 -2 19 -2q37 0 50 25t13 77 q0 54 -13 78t-50 24q-13 0 -19 -2v-200zM377 154v297h155v-52h-96v-69h82v-49h-82v-78h96v-49h-155zM437 1128.5q-7 46.5 24 83.5q23 23 53 34t65 3.5t64 -35.5q38 -37 48.5 -102t-2.5 -131t-31.5 -126.5t-35.5 -98.5l-18 -39q20 191 -125 330q-35 35 -42 81.5zM571 154 q3 156 15 297h80l39 -164l38 164h82q3 -45 13 -297h-60q0 108 -6 213l-41 -168h-55l-41 168h-2q-4 -140 -4 -213h-58zM647 633q3 8 9 22t25 53.5t39 75.5t50 80.5t59.5 76t66 53.5t71.5 22q49 0 79.5 -24.5t39 -51t8.5 -53.5q0 -43 -34.5 -72.5t-72.5 -34.5 q-213 -23 -340 -147zM879 301q0 81 24 117.5t84 36.5t85.5 -37t25.5 -117q0 -79 -25.5 -115t-85.5 -36t-84 35.5t-24 115.5zM938 301q0 -54 10 -78t39 -24q30 0 40.5 24t10.5 78q0 55 -10 78.5t-41 23.5q-29 0 -39 -23.5t-10 -78.5z" />
<glyph unicode="," horiz-adv-x="468" d="M109 98q0 54 37 89.5t94 35.5q58 0 94.5 -38.5t36.5 -123.5q0 -95 -60 -197t-176 -161l-12 23v2q132 80 147 254q-18 -5 -39 -5q-51 0 -86.5 35t-35.5 86z" />
<glyph unicode="-" d="M129 154v292q61 9 76 9q67 0 96 -37.5t29 -116.5t-29.5 -115t-97.5 -36q-47 0 -74 4zM158 780q0 53 33.5 91t93.5 38q39 0 78 -21t69.5 -55t58.5 -74.5t48 -81.5t35 -75t22 -55l8 -21q-117 148 -319 148q-49 0 -88 30t-39 76zM188 201q4 -2 19 -2q37 0 50 25t13 77 q0 54 -13 78t-50 24q-13 0 -19 -2v-200zM377 154v297h155v-52h-96v-69h82v-49h-82v-78h96v-49h-155zM437 1128.5q-7 46.5 24 83.5q23 23 53 34t65 3.5t64 -35.5q38 -37 48.5 -102t-2.5 -131t-31.5 -126.5t-35.5 -98.5l-18 -39q20 191 -125 330q-35 35 -42 81.5zM571 154 q3 156 15 297h80l39 -164l38 164h82q3 -45 13 -297h-60q0 108 -6 213l-41 -168h-55l-41 168h-2q-4 -140 -4 -213h-58zM647 633q3 8 9 22t25 53.5t39 75.5t50 80.5t59.5 76t66 53.5t71.5 22q49 0 79.5 -24.5t39 -51t8.5 -53.5q0 -43 -34.5 -72.5t-72.5 -34.5 q-213 -23 -340 -147zM879 301q0 81 24 117.5t84 36.5t85.5 -37t25.5 -117q0 -79 -25.5 -115t-85.5 -36t-84 35.5t-24 115.5zM938 301q0 -54 10 -78t39 -24q30 0 40.5 24t10.5 78q0 55 -10 78.5t-41 23.5q-29 0 -39 -23.5t-10 -78.5z" />
<glyph unicode="." horiz-adv-x="477" d="M109 106q0 52 39 91t92 39q52 0 90.5 -38.5t38.5 -91.5q0 -54 -38 -92.5t-91 -38.5t-92 39.5t-39 91.5z" />
<glyph unicode="/" d="M129 154v292q61 9 76 9q67 0 96 -37.5t29 -116.5t-29.5 -115t-97.5 -36q-47 0 -74 4zM158 780q0 53 33.5 91t93.5 38q39 0 78 -21t69.5 -55t58.5 -74.5t48 -81.5t35 -75t22 -55l8 -21q-117 148 -319 148q-49 0 -88 30t-39 76zM188 201q4 -2 19 -2q37 0 50 25t13 77 q0 54 -13 78t-50 24q-13 0 -19 -2v-200zM377 154v297h155v-52h-96v-69h82v-49h-82v-78h96v-49h-155zM437 1128.5q-7 46.5 24 83.5q23 23 53 34t65 3.5t64 -35.5q38 -37 48.5 -102t-2.5 -131t-31.5 -126.5t-35.5 -98.5l-18 -39q20 191 -125 330q-35 35 -42 81.5zM571 154 q3 156 15 297h80l39 -164l38 164h82q3 -45 13 -297h-60q0 108 -6 213l-41 -168h-55l-41 168h-2q-4 -140 -4 -213h-58zM647 633q3 8 9 22t25 53.5t39 75.5t50 80.5t59.5 76t66 53.5t71.5 22q49 0 79.5 -24.5t39 -51t8.5 -53.5q0 -43 -34.5 -72.5t-72.5 -34.5 q-213 -23 -340 -147zM879 301q0 81 24 117.5t84 36.5t85.5 -37t25.5 -117q0 -79 -25.5 -115t-85.5 -36t-84 35.5t-24 115.5zM938 301q0 -54 10 -78t39 -24q30 0 40.5 24t10.5 78q0 55 -10 78.5t-41 23.5q-29 0 -39 -23.5t-10 -78.5z" />
<glyph unicode="0" horiz-adv-x="1456" d="M100 735q-1 160 49 303t134.5 244.5t201 161t244.5 59.5q171 0 315.5 -99.5t229 -276t82.5 -388.5q-1 -159 -50.5 -301t-133.5 -242.5t-199.5 -159.5t-243.5 -59q-129 0 -244.5 58t-199.5 158.5t-134 241.5t-51 300zM336 739q0 -329 108 -527t285 -198q116 0 204.5 89 t137.5 254t49 382q0 329 -108 528t-283 199q-177 0 -285 -199t-108 -528z" />
<glyph unicode="1" horiz-adv-x="653" d="M84 1268v10q37 15 71.5 32.5t73 41.5t61.5 39t69 47t65 45h20l-2 -1329q2 -87 99 -144v-10h-408v10q98 55 98 148v1110h-147z" />
<glyph unicode="2" horiz-adv-x="1198" d="M63 1137l127 368h9q16 -49 67 -49q23 0 61.5 12t96.5 23.5t129 11.5q232 0 354 -102t119 -299q-1 -71 -22.5 -142.5t-55 -135t-92.5 -135.5t-115.5 -130.5t-143.5 -134.5t-158 -133.5t-177 -140.5h449q103 0 188 24t131 64q60 51 92 108h11l-89 -346h-972v18 q160 130 290 263.5t231 272.5t156.5 281t55.5 271q0 173 -77.5 266.5t-209.5 93.5q-48 0 -92.5 -12t-79.5 -29t-71 -47t-60.5 -55t-54 -64.5t-45.5 -64t-41 -64.5z" />
<glyph unicode="3" horiz-adv-x="1189" d="M78 330l10 6q33 -52 59 -88.5t69.5 -84t86 -76.5t101 -50t122.5 -21q183 0 270 102t87 275q0 175 -110.5 281.5t-289.5 91.5l-75 -6v16l81 23q157 43 234.5 127.5t77.5 234.5q0 139 -73.5 220t-192.5 81q-61 0 -118 -20.5t-98.5 -50t-84.5 -76.5t-69 -83.5t-59 -88.5 l-8 8l125 367h8q20 -50 68 -50q13 0 110.5 17.5t180.5 17.5q192 0 304 -85.5t112 -237.5q0 -56 -18.5 -106t-50 -88t-76.5 -70.5t-93 -55.5t-104 -41q84 -5 158.5 -31.5t136.5 -73t98.5 -121t36.5 -167.5q0 -200 -154 -324.5t-414 -124.5q-89 0 -160.5 17.5t-84.5 17.5 q-50 0 -68 -51h-8z" />
<glyph unicode="4" d="M129 154v292q61 9 76 9q67 0 96 -37.5t29 -116.5t-29.5 -115t-97.5 -36q-47 0 -74 4zM158 780q0 53 33.5 91t93.5 38q39 0 78 -21t69.5 -55t58.5 -74.5t48 -81.5t35 -75t22 -55l8 -21q-117 148 -319 148q-49 0 -88 30t-39 76zM188 201q4 -2 19 -2q37 0 50 25t13 77 q0 54 -13 78t-50 24q-13 0 -19 -2v-200zM377 154v297h155v-52h-96v-69h82v-49h-82v-78h96v-49h-155zM437 1128.5q-7 46.5 24 83.5q23 23 53 34t65 3.5t64 -35.5q38 -37 48.5 -102t-2.5 -131t-31.5 -126.5t-35.5 -98.5l-18 -39q20 191 -125 330q-35 35 -42 81.5zM571 154 q3 156 15 297h80l39 -164l38 164h82q3 -45 13 -297h-60q0 108 -6 213l-41 -168h-55l-41 168h-2q-4 -140 -4 -213h-58zM647 633q3 8 9 22t25 53.5t39 75.5t50 80.5t59.5 76t66 53.5t71.5 22q49 0 79.5 -24.5t39 -51t8.5 -53.5q0 -43 -34.5 -72.5t-72.5 -34.5 q-213 -23 -340 -147zM879 301q0 81 24 117.5t84 36.5t85.5 -37t25.5 -117q0 -79 -25.5 -115t-85.5 -36t-84 35.5t-24 115.5zM938 301q0 -54 10 -78t39 -24q30 0 40.5 24t10.5 78q0 55 -10 78.5t-41 23.5q-29 0 -39 -23.5t-10 -78.5z" />
<glyph unicode="5" horiz-adv-x="1173" d="M80 336l10 6q30 -52 56 -91.5t68 -86.5t85 -77.5t102.5 -51.5t124.5 -21q160 0 253 101.5t93 296.5q0 186 -96 298.5t-248 112.5q-125 0 -214 -35.5t-171 -97.5l-2 2l90 791h711q33 0 57.5 18t24.5 39h10l-20 -213h-754l-61 -557q168 107 407 107q219 0 349 -115 t130 -332q0 -108 -44.5 -195.5t-119.5 -143t-169.5 -85t-198.5 -29.5q-75 0 -132 9.5t-90.5 19.5t-51.5 10q-48 0 -68 -49h-8z" />
<glyph unicode="6" horiz-adv-x="1290" d="M106 717q0 225 81.5 405.5t223 280.5t314.5 100q67 0 136.5 -17.5t84.5 -17.5q20 0 38 14t24 36h10l125 -367l-10 -6q-36 57 -64.5 98t-69 86t-78.5 72.5t-87 46t-101 18.5q-197 0 -301 -189t-104 -550v-37q55 106 170 171t256 65q201 0 321.5 -125t120.5 -334 q0 -206 -149 -348t-365 -142q-267 0 -421.5 198t-154.5 542zM330 643q9 -323 96 -476t256 -153q147 0 226 109t79 315q0 192 -83 306t-220 114q-106 0 -200 -57t-154 -158z" />
<glyph unicode="7" horiz-adv-x="1028" d="M14 1270l23 213h956v-127q-107 -147 -183.5 -285.5t-125.5 -264.5t-77.5 -262t-39 -262.5t-10.5 -281.5h-240q0 150 28 288t95.5 299t188 344t299.5 396h-799q-90 0 -104 -57h-11z" />
<glyph unicode="8" horiz-adv-x="1216" d="M98 352q0 129 86.5 232.5t253.5 160.5h-2q-131 58 -202.5 152.5t-71.5 218.5q0 178 129.5 282.5t324.5 104.5q192 0 310 -88t118 -233q0 -231 -296 -363l71 -35q303 -142 303 -393q0 -182 -146.5 -298t-373.5 -116q-231 0 -367.5 100.5t-136.5 274.5zM256 369 q0 -168 97.5 -262.5t262.5 -94.5q149 0 244.5 83.5t95.5 211.5q0 103 -60 181t-196 139l-225 102q-219 -114 -219 -360zM319 1202q0 -103 62 -174.5t213 -136.5l127 -60q190 135 190 340q1 136 -79.5 214.5t-219.5 80.5q-129 0 -211 -71t-82 -193z" />
<glyph unicode="9" horiz-adv-x="1298" d="M100 1016q0 210 147.5 348.5t373.5 138.5q261 0 415.5 -196t155.5 -539q0 -354 -172 -572.5t-449 -218.5q-79 0 -153 17.5t-88 17.5q-52 0 -68 -51h-8l-127 369l14 8q38 -60 67 -100.5t71.5 -87t82.5 -74t92.5 -46t110.5 -18.5q209 1 305.5 183.5t96.5 554.5v55 q-56 -104 -169 -167t-251 -63q-199 0 -323 122t-124 319zM313 1034q0 -176 83 -283.5t220 -107.5q105 0 196 54.5t153 150.5q-20 616 -342 616q-151 0 -230.5 -111.5t-79.5 -318.5z" />
<glyph unicode=":" horiz-adv-x="516" d="M129 106q0 53 38.5 91.5t90.5 38.5q54 0 91.5 -38.5t37.5 -91.5q0 -54 -37.5 -92.5t-91.5 -38.5q-53 0 -91 39.5t-38 91.5zM129 838q0 52 38.5 90.5t90.5 38.5q54 0 91.5 -38t37.5 -91q0 -55 -37.5 -93t-91.5 -38q-53 0 -91 39.5t-38 91.5z" />
<glyph unicode=";" horiz-adv-x="546" d="M143 98q0 54 37 89.5t94 35.5q58 0 95 -38.5t37 -123.5q0 -60 -23.5 -124t-79 -129t-135.5 -105l-12 23v2q135 80 147 254q-17 -5 -39 -5q-50 0 -85.5 35t-35.5 86zM150 836q0 52 38 90.5t91 38.5q54 0 91.5 -38t37.5 -91q0 -54 -37.5 -92.5t-91.5 -38.5q-53 0 -91 39.5 t-38 91.5z" />
<glyph unicode="&#x3c;" d="M129 154v292q61 9 76 9q67 0 96 -37.5t29 -116.5t-29.5 -115t-97.5 -36q-47 0 -74 4zM158 780q0 53 33.5 91t93.5 38q39 0 78 -21t69.5 -55t58.5 -74.5t48 -81.5t35 -75t22 -55l8 -21q-117 148 -319 148q-49 0 -88 30t-39 76zM188 201q4 -2 19 -2q37 0 50 25t13 77 q0 54 -13 78t-50 24q-13 0 -19 -2v-200zM377 154v297h155v-52h-96v-69h82v-49h-82v-78h96v-49h-155zM437 1128.5q-7 46.5 24 83.5q23 23 53 34t65 3.5t64 -35.5q38 -37 48.5 -102t-2.5 -131t-31.5 -126.5t-35.5 -98.5l-18 -39q20 191 -125 330q-35 35 -42 81.5zM571 154 q3 156 15 297h80l39 -164l38 164h82q3 -45 13 -297h-60q0 108 -6 213l-41 -168h-55l-41 168h-2q-4 -140 -4 -213h-58zM647 633q3 8 9 22t25 53.5t39 75.5t50 80.5t59.5 76t66 53.5t71.5 22q49 0 79.5 -24.5t39 -51t8.5 -53.5q0 -43 -34.5 -72.5t-72.5 -34.5 q-213 -23 -340 -147zM879 301q0 81 24 117.5t84 36.5t85.5 -37t25.5 -117q0 -79 -25.5 -115t-85.5 -36t-84 35.5t-24 115.5zM938 301q0 -54 10 -78t39 -24q30 0 40.5 24t10.5 78q0 55 -10 78.5t-41 23.5q-29 0 -39 -23.5t-10 -78.5z" />
<glyph unicode="=" d="M129 154v292q61 9 76 9q67 0 96 -37.5t29 -116.5t-29.5 -115t-97.5 -36q-47 0 -74 4zM158 780q0 53 33.5 91t93.5 38q39 0 78 -21t69.5 -55t58.5 -74.5t48 -81.5t35 -75t22 -55l8 -21q-117 148 -319 148q-49 0 -88 30t-39 76zM188 201q4 -2 19 -2q37 0 50 25t13 77 q0 54 -13 78t-50 24q-13 0 -19 -2v-200zM377 154v297h155v-52h-96v-69h82v-49h-82v-78h96v-49h-155zM437 1128.5q-7 46.5 24 83.5q23 23 53 34t65 3.5t64 -35.5q38 -37 48.5 -102t-2.5 -131t-31.5 -126.5t-35.5 -98.5l-18 -39q20 191 -125 330q-35 35 -42 81.5zM571 154 q3 156 15 297h80l39 -164l38 164h82q3 -45 13 -297h-60q0 108 -6 213l-41 -168h-55l-41 168h-2q-4 -140 -4 -213h-58zM647 633q3 8 9 22t25 53.5t39 75.5t50 80.5t59.5 76t66 53.5t71.5 22q49 0 79.5 -24.5t39 -51t8.5 -53.5q0 -43 -34.5 -72.5t-72.5 -34.5 q-213 -23 -340 -147zM879 301q0 81 24 117.5t84 36.5t85.5 -37t25.5 -117q0 -79 -25.5 -115t-85.5 -36t-84 35.5t-24 115.5zM938 301q0 -54 10 -78t39 -24q30 0 40.5 24t10.5 78q0 55 -10 78.5t-41 23.5q-29 0 -39 -23.5t-10 -78.5z" />
<glyph unicode="&#x3e;" d="M129 154v292q61 9 76 9q67 0 96 -37.5t29 -116.5t-29.5 -115t-97.5 -36q-47 0 -74 4zM158 780q0 53 33.5 91t93.5 38q39 0 78 -21t69.5 -55t58.5 -74.5t48 -81.5t35 -75t22 -55l8 -21q-117 148 -319 148q-49 0 -88 30t-39 76zM188 201q4 -2 19 -2q37 0 50 25t13 77 q0 54 -13 78t-50 24q-13 0 -19 -2v-200zM377 154v297h155v-52h-96v-69h82v-49h-82v-78h96v-49h-155zM437 1128.5q-7 46.5 24 83.5q23 23 53 34t65 3.5t64 -35.5q38 -37 48.5 -102t-2.5 -131t-31.5 -126.5t-35.5 -98.5l-18 -39q20 191 -125 330q-35 35 -42 81.5zM571 154 q3 156 15 297h80l39 -164l38 164h82q3 -45 13 -297h-60q0 108 -6 213l-41 -168h-55l-41 168h-2q-4 -140 -4 -213h-58zM647 633q3 8 9 22t25 53.5t39 75.5t50 80.5t59.5 76t66 53.5t71.5 22q49 0 79.5 -24.5t39 -51t8.5 -53.5q0 -43 -34.5 -72.5t-72.5 -34.5 q-213 -23 -340 -147zM879 301q0 81 24 117.5t84 36.5t85.5 -37t25.5 -117q0 -79 -25.5 -115t-85.5 -36t-84 35.5t-24 115.5zM938 301q0 -54 10 -78t39 -24q30 0 40.5 24t10.5 78q0 55 -10 78.5t-41 23.5q-29 0 -39 -23.5t-10 -78.5z" />
<glyph unicode="?" horiz-adv-x="974" d="M35 1069l143 367h10q6 -19 23 -34.5t43 -15.5q12 0 82 17.5t153 17.5q195 0 312 -97t117 -261q0 -75 -26 -138.5t-67 -108.5t-90.5 -85t-99.5 -75.5t-91 -71t-67 -80.5t-26 -96v-50h-23v50q0 65 15.5 121t40.5 97.5t54.5 80.5t59.5 78.5t55 82t40.5 101.5t15.5 127 q0 145 -74 216.5t-178 71.5q-56 0 -109.5 -21.5t-92.5 -50.5t-81.5 -77.5t-67.5 -84.5t-59 -89zM315 106q0 53 38.5 91.5t90.5 38.5q54 0 91.5 -38.5t37.5 -91.5q0 -54 -37.5 -92.5t-91.5 -38.5q-52 0 -90.5 39.5t-38.5 91.5z" />
<glyph unicode="@" d="M129 154v292q61 9 76 9q67 0 96 -37.5t29 -116.5t-29.5 -115t-97.5 -36q-47 0 -74 4zM158 780q0 53 33.5 91t93.5 38q39 0 78 -21t69.5 -55t58.5 -74.5t48 -81.5t35 -75t22 -55l8 -21q-117 148 -319 148q-49 0 -88 30t-39 76zM188 201q4 -2 19 -2q37 0 50 25t13 77 q0 54 -13 78t-50 24q-13 0 -19 -2v-200zM377 154v297h155v-52h-96v-69h82v-49h-82v-78h96v-49h-155zM437 1128.5q-7 46.5 24 83.5q23 23 53 34t65 3.5t64 -35.5q38 -37 48.5 -102t-2.5 -131t-31.5 -126.5t-35.5 -98.5l-18 -39q20 191 -125 330q-35 35 -42 81.5zM571 154 q3 156 15 297h80l39 -164l38 164h82q3 -45 13 -297h-60q0 108 -6 213l-41 -168h-55l-41 168h-2q-4 -140 -4 -213h-58zM647 633q3 8 9 22t25 53.5t39 75.5t50 80.5t59.5 76t66 53.5t71.5 22q49 0 79.5 -24.5t39 -51t8.5 -53.5q0 -43 -34.5 -72.5t-72.5 -34.5 q-213 -23 -340 -147zM879 301q0 81 24 117.5t84 36.5t85.5 -37t25.5 -117q0 -79 -25.5 -115t-85.5 -36t-84 35.5t-24 115.5zM938 301q0 -54 10 -78t39 -24q30 0 40.5 24t10.5 78q0 55 -10 78.5t-41 23.5q-29 0 -39 -23.5t-10 -78.5z" />
<glyph unicode="A" horiz-adv-x="1337" d="M6 0v10q58 23 93 64.5t57 101.5l477 1327h45l539 -1360q34 -81 120 -133v-10h-440v10q57 16 81 57q13 22 13 48q0 24 -10 51l-201 506h-403l-174 -484q-9 -25 -9 -48q0 -34 20 -64q34 -50 81 -64v-12h-289zM391 711h375l-197 497z" />
<glyph unicode="B" horiz-adv-x="1267" d="M115 0v10q98 56 98 148v1163q0 95 -98 147v15h424q223 0 338.5 -76.5t115.5 -220.5q0 -63 -29 -116.5t-76 -89t-100 -58t-108 -31.5q95 -6 182.5 -34.5t162.5 -79t120 -134t45 -188.5q0 -208 -162.5 -331.5t-452.5 -123.5h-460zM424 33h135q197 0 304.5 93t107.5 282v6 q-1 110 -35 198q-36 90 -95.5 144t-132 82t-151.5 28h-133v-833zM424 899h121q112 0 187 66t75 180q0 67 -17 120t-46.5 87.5t-72 56.5t-89 31.5t-101.5 9.5h-57v-551z" />
<glyph unicode="C" horiz-adv-x="1458" d="M96 737q0 157 55.5 297.5t153.5 244t241.5 164t311.5 60.5q85 0 162 -17.5t92 -17.5q48 0 68 50h8l180 -455l-12 -6q-22 34 -34 52t-39 56t-46 61.5t-50 59t-57 58t-61 48t-67 40.5t-70 24.5t-76 9.5q-169 -1 -288 -83.5t-177.5 -227t-58.5 -338.5q0 -175 50 -320 t135.5 -239t196 -145.5t232.5 -51.5q139 0 253.5 63.5t193.5 180.5l22 -14q-91 -147 -242 -227t-327 -80q-149 0 -284 51t-239 145t-165.5 238.5t-61.5 318.5z" />
<glyph unicode="D" horiz-adv-x="1525" d="M115 0v10q98 55 98 148v1163q0 92 -98 147v15h475q134 0 257 -28.5t229.5 -87.5t185 -143.5t123.5 -204t45 -261.5q0 -174 -65.5 -318t-179.5 -239.5t-268.5 -148t-332.5 -52.5h-469zM424 37h131q310 0 478.5 164t168.5 475q0 148 -37 274t-101 216t-149.5 154t-183 95 t-201.5 31h-106v-1409z" />
<glyph unicode="E" horiz-adv-x="1200" d="M115 0v10q98 55 98 148v1167q0 93 -98 148v10h788l141 -334l-10 -8q-191 303 -383 303h-227v-416h264q47 0 86 42t55 85h11v-295h-11q-16 43 -55 86t-86 43h-264v-950h338q220 0 420 387l10 -6l-148 -420h-929z" />
<glyph unicode="F" horiz-adv-x="1075" d="M115 0v10q98 55 98 148v1167q0 93 -98 148v10h803l141 -334l-12 -8q-23 37 -46.5 70.5t-63 78.5t-79 77t-91.5 54.5t-103 22.5h-240v-428h278q46 0 84.5 42t57.5 87h10v-295h-10q-19 45 -57.5 87t-84.5 42h-278v-821q0 -85 113 -148v-10h-422z" />
<glyph unicode="G" horiz-adv-x="1597" d="M96 737q0 210 93 384.5t262.5 278t379.5 103.5q93 0 180.5 -17.5t100.5 -17.5q48 0 68 50h8l231 -531l-12 -8q-22 40 -43.5 75.5t-57 87t-71 93.5t-84 86.5t-96.5 75t-107 50t-119 19.5q-234 0 -365.5 -177.5t-131.5 -471.5q0 -175 50 -320.5t133 -240t189.5 -146 t221.5 -51.5q88 1 164.5 26.5t130.5 69t92.5 99.5t57 118t18.5 124q0 166 -222 166h-20v22h397q-12 -105 -46.5 -204t-96 -190t-142.5 -158.5t-193 -107.5t-241 -40q-113 0 -219.5 32t-199 96t-162 152.5t-109 210.5t-39.5 262z" />
<glyph unicode="H" horiz-adv-x="1552" d="M115 0v10q98 55 98 148v1167q0 93 -98 148v10h409v-10q-100 -56 -100 -148v-432h702v432q0 93 -98 148v10h410v-10q-101 -57 -101 -148v-1167q0 -91 101 -148v-10h-410v10q98 55 98 148v696h-702v-696q0 -92 100 -148v-10h-409z" />
<glyph unicode="I" horiz-adv-x="616" d="M117 0v10q86 48 86 127v1209q0 79 -86 127v10h385v-10q-88 -49 -88 -127v-1209q0 -78 88 -127v-10h-385z" />
<glyph unicode="J" horiz-adv-x="794" d="M10 123l15 12q80 -92 180 -92q91 0 136.5 58.5t45.5 197.5v1026q0 91 -100 148v10h409v-10q-98 -56 -98 -148v-1034q0 -314 -299 -314q-179 0 -289 146z" />
<glyph unicode="K" horiz-adv-x="1400" d="M115 0v10q98 55 98 148v1167q0 93 -98 148v10h409v-10q-100 -56 -100 -148v-577l627 563q42 35 42 82v9q-5 52 -63 68v13h287v-10q-25 -14 -43 -25t-39 -28t-29 -23t-38 -32.5t-40 -35.5l-419 -379l581 -815q22 -29 50 -54.5t45 -37.5t51 -33v-10h-428v10q71 19 71 68 q0 33 -32 80l-492 655l-131 -119v-536q0 -92 100 -148v-10h-409z" />
<glyph unicode="L" horiz-adv-x="1183" d="M115 0v10q98 55 98 148v1167q0 93 -98 148v10h409v-10q-100 -56 -100 -148v-1286h225q127 0 211 37t151.5 120.5t149.5 245.5l13 -6l-144 -436h-915z" />
<glyph unicode="M" horiz-adv-x="1847" d="M102 0v10q42 21 77.5 70t35.5 110v1135q0 93 -98 148v10h299l520 -1213l504 1213h295v-10q-101 -57 -101 -148v-1169q0 -88 99 -146v-10h-410v10q98 58 98 140v1173l-553 -1346h-28l-578 1344v-1131q0 -60 41 -108.5t86 -71.5v-10h-287z" />
<glyph unicode="N" horiz-adv-x="1439" d="M102 0v10q42 21 77.5 70t35.5 110v1168q-42 60 -60 82t-38 33v10h256l811 -1147v956q0 60 -41 109t-86 72v10h286v-10q-42 -20 -77 -69.5t-35 -111.5v-1312h-35l-934 1308v-1098q0 -60 41 -108.5t86 -71.5v-10h-287z" />
<glyph unicode="O" horiz-adv-x="1671" d="M94 737q0 159 57.5 301t156 244.5t236.5 162.5t292 60q158 0 296.5 -59t235.5 -160.5t153 -242.5t56 -300q0 -156 -56 -297t-153 -244.5t-235.5 -164t-296.5 -60.5q-156 0 -293.5 59t-236 160t-155.5 242t-57 299zM289 907q0 -112 31 -234t90.5 -235t137 -204.5 t179.5 -146t209 -54.5q205 0 325.5 152.5t120.5 389.5q0 123 -32 249.5t-91.5 237.5t-137.5 198.5t-178.5 138.5t-205.5 51q-137 0 -240 -72.5t-155.5 -195t-52.5 -275.5z" />
<glyph unicode="P" d="M115 0v10q98 55 98 148v1167q0 91 -98 148v10h520q263 0 405 -105t142 -295q0 -194 -169 -310t-458 -116h-131v-499q0 -45 37.5 -84.5t87.5 -63.5v-10h-434zM424 696h119q197 0 307.5 86t110.5 252q0 194 -102 302t-279 108h-156v-748z" />
<glyph unicode="Q" horiz-adv-x="1671" d="M94 737q0 159 57.5 301t156 244.5t236.5 162.5t292 60q158 0 296.5 -59t235.5 -160.5t153 -242.5t56 -300q0 -203 -89 -374t-250 -276t-361 -116l-160 -104q41 10 88 10q94 -1 277 -43.5t251 -42.5q150 0 248 39l6 -16q-5 -4 -33 -25l-34 -25.5t-30.5 -21.5t-33.5 -22 t-32 -18t-35.5 -17t-35 -12.5t-40.5 -11t-41 -5t-47 -2.5q-62 0 -138.5 21.5t-136 48t-129 48t-119.5 21.5q-33 0 -64.5 -7.5t-52.5 -16t-65 -29.5l-14 25l313 206q-153 3 -287.5 63t-230.5 161t-151.5 240.5t-55.5 295.5zM289 907q0 -112 31 -234t90.5 -235t137 -204.5 t179.5 -146t209 -54.5q205 0 325.5 152.5t120.5 389.5q0 123 -32 249.5t-91.5 237.5t-137.5 198.5t-178.5 138.5t-205.5 51q-137 0 -240 -72.5t-155.5 -195t-52.5 -275.5z" />
<glyph unicode="R" horiz-adv-x="1277" d="M115 0v10q100 56 100 150v1161q0 91 -100 147v15h512q71 0 138 -10.5t134 -36.5t117 -65.5t81 -102.5t31 -142q0 -83 -37 -151t-98.5 -111t-138.5 -66.5t-160 -23.5h-35q74 -32 133 -77t104.5 -105.5t78 -118.5t69.5 -141q61 -149 115.5 -224t122.5 -98v-10h-313l-64 147 q-19 45 -50 119.5t-49 117t-47 104.5t-51.5 99t-55 81.5t-64.5 71t-73.5 48.5t-88.5 31v-659q0 -95 98 -150v-10h-409zM426 846q15 -3 52.5 -14t79.5 -18t95 -7q124 0 190 72.5t66 203.5q0 175 -98 268t-264 93h-121v-598z" />
<glyph unicode="S" horiz-adv-x="1120" d="M29 434l12 8q30 -68 61 -124t76 -115t94 -99.5t114.5 -66t137.5 -25.5q162 0 249 81.5t87 228.5q0 122 -75.5 218.5t-270.5 219.5q-206 133 -280 223.5t-74 206.5q0 139 102.5 227t263.5 88q64 0 129.5 -18.5t83.5 -18.5q56 0 68 52h10l117 -383l-10 -9q-24 45 -42.5 78 t-47.5 76t-58.5 73t-66 57.5t-80.5 41.5t-92 14q-93 0 -146 -51t-53 -141q0 -61 26.5 -106.5t96.5 -101.5t215 -146q206 -129 284 -238t78 -260q0 -209 -137 -328t-377 -119q-96 0 -172 19.5t-98 19.5q-57 0 -74 -53h-8z" />
<glyph unicode="T" horiz-adv-x="1214" d="M33 1114l63 369h1022l64 -369l-15 -2q-2 6 -16.5 42t-21.5 53t-25 53.5t-31 56t-35 47.5t-43 43t-49 26t-57 11h-176v-1286q0 -92 100 -148v-10h-410v10q99 56 99 148v1286h-176q-26 0 -50.5 -7.5t-45.5 -23.5t-39 -32.5t-35 -43t-29 -45.5t-26 -50t-20.5 -47t-18.5 -46 t-15 -37z" />
<glyph unicode="U" horiz-adv-x="1454" d="M90 1473v10h410v-10q-99 -56 -99 -148v-797q0 -250 109.5 -368.5t292.5 -118.5q186 0 293.5 119.5t107.5 339.5v792q0 61 -36 110.5t-78 70.5v10h278v-10q-42 -20 -77.5 -69.5t-35.5 -111.5v-778q0 -256 -131.5 -396.5t-380.5 -140.5q-254 0 -403.5 140.5t-149.5 421.5 v786q0 92 -100 148z" />
<glyph unicode="V" horiz-adv-x="1363" d="M2 1473v10h440v-10q-60 -17 -82 -61q-10 -21 -11 -44q0 -27 13 -59l412 -1041l381 1000q20 49 20 88q0 85 -98 114v13h291v-10q-58 -23 -92 -64t-57 -102l-500 -1307h-60l-536 1339q-18 43 -46 73.5t-75 60.5z" />
<glyph unicode="W" horiz-adv-x="1910" d="M6 1473v10h434v-10q-54 -16 -78 -56q-13 -22 -12 -50q0 -23 8 -50l336 -1034l328 884h37l342 -903l305 1030q7 24 7 45q0 36 -19 67q-31 50 -78 64v13h291v-10q-115 -43 -152 -166l-399 -1307h-62l-342 866l-317 -866h-57l-453 1339q-25 76 -119 134z" />
<glyph unicode="X" horiz-adv-x="1261" d="M0 0v10q83 27 164 162l354 580l-346 577q-24 39 -38.5 60t-43 45.5t-63.5 38.5v10h460v-13q-61 -19 -77 -61q-5 -13 -5 -29q0 -32 23 -73l283 -473l290 456q22 35 22 69q0 18 -6 35q-18 50 -81 76v13h289v-10q-44 -14 -82 -54t-78 -108l-332 -514l385 -643 q32 -52 64.5 -86t85.5 -58v-10h-461v12q61 20 77 62q5 13 4 27q0 33 -24 75l-323 539l-314 -522q-21 -36 -21 -69q0 -18 6 -36q18 -50 81 -76v-12h-293z" />
<glyph unicode="Y" horiz-adv-x="1265" d="M25 1473v10h446v-13q-80 -26 -80 -86q0 -33 25 -77l309 -516l295 495q24 42 24 78q0 16 -4 32q-16 49 -79 74v13h286v-10q-88 -33 -166 -164l-336 -564v-587q0 -89 101 -148v-10h-426v10q43 24 71.5 61.5t28.5 82.5v585l-350 590q-34 58 -63.5 89.5t-81.5 54.5z" />
<glyph unicode="Z" horiz-adv-x="1185" d="M63 0v39l750 1405h-336q-51 0 -103 -22.5t-91.5 -54.5t-79 -77t-63 -78.5t-46.5 -70.5l-12 8l141 334h828v-39l-756 -1405h414q57 0 113.5 27.5t99 67.5t85 96.5t68.5 101t51 94.5l13 -6l-150 -420h-926z" />
<glyph unicode="[" d="M129 154v292q61 9 76 9q67 0 96 -37.5t29 -116.5t-29.5 -115t-97.5 -36q-47 0 -74 4zM158 780q0 53 33.5 91t93.5 38q39 0 78 -21t69.5 -55t58.5 -74.5t48 -81.5t35 -75t22 -55l8 -21q-117 148 -319 148q-49 0 -88 30t-39 76zM188 201q4 -2 19 -2q37 0 50 25t13 77 q0 54 -13 78t-50 24q-13 0 -19 -2v-200zM377 154v297h155v-52h-96v-69h82v-49h-82v-78h96v-49h-155zM437 1128.5q-7 46.5 24 83.5q23 23 53 34t65 3.5t64 -35.5q38 -37 48.5 -102t-2.5 -131t-31.5 -126.5t-35.5 -98.5l-18 -39q20 191 -125 330q-35 35 -42 81.5zM571 154 q3 156 15 297h80l39 -164l38 164h82q3 -45 13 -297h-60q0 108 -6 213l-41 -168h-55l-41 168h-2q-4 -140 -4 -213h-58zM647 633q3 8 9 22t25 53.5t39 75.5t50 80.5t59.5 76t66 53.5t71.5 22q49 0 79.5 -24.5t39 -51t8.5 -53.5q0 -43 -34.5 -72.5t-72.5 -34.5 q-213 -23 -340 -147zM879 301q0 81 24 117.5t84 36.5t85.5 -37t25.5 -117q0 -79 -25.5 -115t-85.5 -36t-84 35.5t-24 115.5zM938 301q0 -54 10 -78t39 -24q30 0 40.5 24t10.5 78q0 55 -10 78.5t-41 23.5q-29 0 -39 -23.5t-10 -78.5z" />
<glyph unicode="\" d="M129 154v292q61 9 76 9q67 0 96 -37.5t29 -116.5t-29.5 -115t-97.5 -36q-47 0 -74 4zM158 780q0 53 33.5 91t93.5 38q39 0 78 -21t69.5 -55t58.5 -74.5t48 -81.5t35 -75t22 -55l8 -21q-117 148 -319 148q-49 0 -88 30t-39 76zM188 201q4 -2 19 -2q37 0 50 25t13 77 q0 54 -13 78t-50 24q-13 0 -19 -2v-200zM377 154v297h155v-52h-96v-69h82v-49h-82v-78h96v-49h-155zM437 1128.5q-7 46.5 24 83.5q23 23 53 34t65 3.5t64 -35.5q38 -37 48.5 -102t-2.5 -131t-31.5 -126.5t-35.5 -98.5l-18 -39q20 191 -125 330q-35 35 -42 81.5zM571 154 q3 156 15 297h80l39 -164l38 164h82q3 -45 13 -297h-60q0 108 -6 213l-41 -168h-55l-41 168h-2q-4 -140 -4 -213h-58zM647 633q3 8 9 22t25 53.5t39 75.5t50 80.5t59.5 76t66 53.5t71.5 22q49 0 79.5 -24.5t39 -51t8.5 -53.5q0 -43 -34.5 -72.5t-72.5 -34.5 q-213 -23 -340 -147zM879 301q0 81 24 117.5t84 36.5t85.5 -37t25.5 -117q0 -79 -25.5 -115t-85.5 -36t-84 35.5t-24 115.5zM938 301q0 -54 10 -78t39 -24q30 0 40.5 24t10.5 78q0 55 -10 78.5t-41 23.5q-29 0 -39 -23.5t-10 -78.5z" />
<glyph unicode="]" d="M129 154v292q61 9 76 9q67 0 96 -37.5t29 -116.5t-29.5 -115t-97.5 -36q-47 0 -74 4zM158 780q0 53 33.5 91t93.5 38q39 0 78 -21t69.5 -55t58.5 -74.5t48 -81.5t35 -75t22 -55l8 -21q-117 148 -319 148q-49 0 -88 30t-39 76zM188 201q4 -2 19 -2q37 0 50 25t13 77 q0 54 -13 78t-50 24q-13 0 -19 -2v-200zM377 154v297h155v-52h-96v-69h82v-49h-82v-78h96v-49h-155zM437 1128.5q-7 46.5 24 83.5q23 23 53 34t65 3.5t64 -35.5q38 -37 48.5 -102t-2.5 -131t-31.5 -126.5t-35.5 -98.5l-18 -39q20 191 -125 330q-35 35 -42 81.5zM571 154 q3 156 15 297h80l39 -164l38 164h82q3 -45 13 -297h-60q0 108 -6 213l-41 -168h-55l-41 168h-2q-4 -140 -4 -213h-58zM647 633q3 8 9 22t25 53.5t39 75.5t50 80.5t59.5 76t66 53.5t71.5 22q49 0 79.5 -24.5t39 -51t8.5 -53.5q0 -43 -34.5 -72.5t-72.5 -34.5 q-213 -23 -340 -147zM879 301q0 81 24 117.5t84 36.5t85.5 -37t25.5 -117q0 -79 -25.5 -115t-85.5 -36t-84 35.5t-24 115.5zM938 301q0 -54 10 -78t39 -24q30 0 40.5 24t10.5 78q0 55 -10 78.5t-41 23.5q-29 0 -39 -23.5t-10 -78.5z" />
<glyph unicode="^" d="M129 154v292q61 9 76 9q67 0 96 -37.5t29 -116.5t-29.5 -115t-97.5 -36q-47 0 -74 4zM158 780q0 53 33.5 91t93.5 38q39 0 78 -21t69.5 -55t58.5 -74.5t48 -81.5t35 -75t22 -55l8 -21q-117 148 -319 148q-49 0 -88 30t-39 76zM188 201q4 -2 19 -2q37 0 50 25t13 77 q0 54 -13 78t-50 24q-13 0 -19 -2v-200zM377 154v297h155v-52h-96v-69h82v-49h-82v-78h96v-49h-155zM437 1128.5q-7 46.5 24 83.5q23 23 53 34t65 3.5t64 -35.5q38 -37 48.5 -102t-2.5 -131t-31.5 -126.5t-35.5 -98.5l-18 -39q20 191 -125 330q-35 35 -42 81.5zM571 154 q3 156 15 297h80l39 -164l38 164h82q3 -45 13 -297h-60q0 108 -6 213l-41 -168h-55l-41 168h-2q-4 -140 -4 -213h-58zM647 633q3 8 9 22t25 53.5t39 75.5t50 80.5t59.5 76t66 53.5t71.5 22q49 0 79.5 -24.5t39 -51t8.5 -53.5q0 -43 -34.5 -72.5t-72.5 -34.5 q-213 -23 -340 -147zM879 301q0 81 24 117.5t84 36.5t85.5 -37t25.5 -117q0 -79 -25.5 -115t-85.5 -36t-84 35.5t-24 115.5zM938 301q0 -54 10 -78t39 -24q30 0 40.5 24t10.5 78q0 55 -10 78.5t-41 23.5q-29 0 -39 -23.5t-10 -78.5z" />
<glyph unicode="_" d="M129 154v292q61 9 76 9q67 0 96 -37.5t29 -116.5t-29.5 -115t-97.5 -36q-47 0 -74 4zM158 780q0 53 33.5 91t93.5 38q39 0 78 -21t69.5 -55t58.5 -74.5t48 -81.5t35 -75t22 -55l8 -21q-117 148 -319 148q-49 0 -88 30t-39 76zM188 201q4 -2 19 -2q37 0 50 25t13 77 q0 54 -13 78t-50 24q-13 0 -19 -2v-200zM377 154v297h155v-52h-96v-69h82v-49h-82v-78h96v-49h-155zM437 1128.5q-7 46.5 24 83.5q23 23 53 34t65 3.5t64 -35.5q38 -37 48.5 -102t-2.5 -131t-31.5 -126.5t-35.5 -98.5l-18 -39q20 191 -125 330q-35 35 -42 81.5zM571 154 q3 156 15 297h80l39 -164l38 164h82q3 -45 13 -297h-60q0 108 -6 213l-41 -168h-55l-41 168h-2q-4 -140 -4 -213h-58zM647 633q3 8 9 22t25 53.5t39 75.5t50 80.5t59.5 76t66 53.5t71.5 22q49 0 79.5 -24.5t39 -51t8.5 -53.5q0 -43 -34.5 -72.5t-72.5 -34.5 q-213 -23 -340 -147zM879 301q0 81 24 117.5t84 36.5t85.5 -37t25.5 -117q0 -79 -25.5 -115t-85.5 -36t-84 35.5t-24 115.5zM938 301q0 -54 10 -78t39 -24q30 0 40.5 24t10.5 78q0 55 -10 78.5t-41 23.5q-29 0 -39 -23.5t-10 -78.5z" />
<glyph unicode="`" d="M129 154v292q61 9 76 9q67 0 96 -37.5t29 -116.5t-29.5 -115t-97.5 -36q-47 0 -74 4zM158 780q0 53 33.5 91t93.5 38q39 0 78 -21t69.5 -55t58.5 -74.5t48 -81.5t35 -75t22 -55l8 -21q-117 148 -319 148q-49 0 -88 30t-39 76zM188 201q4 -2 19 -2q37 0 50 25t13 77 q0 54 -13 78t-50 24q-13 0 -19 -2v-200zM377 154v297h155v-52h-96v-69h82v-49h-82v-78h96v-49h-155zM437 1128.5q-7 46.5 24 83.5q23 23 53 34t65 3.5t64 -35.5q38 -37 48.5 -102t-2.5 -131t-31.5 -126.5t-35.5 -98.5l-18 -39q20 191 -125 330q-35 35 -42 81.5zM571 154 q3 156 15 297h80l39 -164l38 164h82q3 -45 13 -297h-60q0 108 -6 213l-41 -168h-55l-41 168h-2q-4 -140 -4 -213h-58zM647 633q3 8 9 22t25 53.5t39 75.5t50 80.5t59.5 76t66 53.5t71.5 22q49 0 79.5 -24.5t39 -51t8.5 -53.5q0 -43 -34.5 -72.5t-72.5 -34.5 q-213 -23 -340 -147zM879 301q0 81 24 117.5t84 36.5t85.5 -37t25.5 -117q0 -79 -25.5 -115t-85.5 -36t-84 35.5t-24 115.5zM938 301q0 -54 10 -78t39 -24q30 0 40.5 24t10.5 78q0 55 -10 78.5t-41 23.5q-29 0 -39 -23.5t-10 -78.5z" />
<glyph unicode="a" horiz-adv-x="1124" d="M90 330q0 150 104.5 247t262.5 97q97 0 178.5 -41t130.5 -101l-6 125q-11 164 -87 260.5t-200 96.5q-54 0 -105.5 -22t-91 -58t-68.5 -72.5t-50 -75.5h-11l66 256q25 -14 50.5 -17t48.5 0.5t75.5 8t110.5 4.5q110 0 197 -32t142.5 -89t85.5 -130.5t35 -161.5l27 -490 q3 -49 24.5 -77.5t57.5 -49.5v-8h-264l-15 137q-53 -65 -138 -112.5t-197 -47.5q-156 0 -259.5 103t-103.5 250zM281 332v-6q1 -111 71 -195q72 -86 191 -86q73 0 140 36t105 81l-20 340q-38 49 -102.5 76.5t-137.5 27.5q-112 0 -178.5 -74t-68.5 -200z" />
<glyph unicode="b" horiz-adv-x="1239" d="M82 0v8q84 47 84 127v1225q0 75 -82 121v8h285v-590q128 139 307 139q213 0 344 -145.5t131 -384.5q0 -109 -37.5 -208t-101.5 -169.5t-151.5 -112t-184.5 -41.5q-182 0 -311 144v-121h-283zM369 139q97 -87 223 -90h2q156 1 248 129q92 130 92 328q0 125 -39 229 t-119 168q-77 62 -180 62h-6q-119 0 -221 -88v-738z" />
<glyph unicode="c" horiz-adv-x="1044" d="M88 487q0 150 66 275.5t190 200.5t281 75q51 0 108 -10q50 -9 82 -9q5 1 9 1q34 2 73 24l53 -296h-12q-50 114 -127.5 189t-177.5 75q-159 0 -245.5 -124.5t-86.5 -340.5q0 -220 103 -347.5t280 -127.5q95 0 168 37.5t135 119.5l12 -8q-63 -111 -164.5 -177.5 t-236.5 -66.5q-224 0 -367 139t-143 371z" />
<glyph unicode="d" horiz-adv-x="1239" d="M88 508q0 222 138.5 376t336.5 154q179 0 307 -139v461q0 75 -82 121v8h285v-1354q0 -80 84 -127v-8h-283v121q-129 -144 -311 -144q-213 0 -344 147.5t-131 383.5zM303 508q0 -124 40.5 -225t122 -163.5t189.5 -62.5q124 0 215 82v738q-97 81 -217 81q-160 0 -255 -130 t-95 -320z" />
<glyph unicode="e" horiz-adv-x="1103" d="M88 498q0 227 142 383.5t354 156.5q97 0 180 -37t138.5 -98.5t87.5 -141t34 -165.5v-21h-723v-12q0 -223 98.5 -357t280.5 -134q205 0 324 178l10 -8q-59 -116 -170.5 -190.5t-263.5 -74.5q-220 0 -356 142.5t-136 378.5zM301 604h539q-4 118 -34.5 209t-89 146 t-138.5 55q-116 0 -192 -108.5t-85 -301.5z" />
<glyph unicode="f" horiz-adv-x="684" d="M43 989v27h154v155q0 138 90.5 234t240.5 96q34 0 79 -9q41 -9 71 -9h6q33 1 70 22l53 -297h-12q-62 140 -114 202.5t-120 62.5q-44 0 -77 -23t-50.5 -62.5t-26 -85t-8.5 -98.5v-188h285v-27h-285v-860q0 -80 95 -121v-8h-379v8q80 45 82 115v866h-154z" />
<glyph unicode="g" horiz-adv-x="1038" d="M18 -223l13 24q201 -149 477 -149q159 0 254.5 62.5t95.5 164.5q0 104 -90 160.5t-258 56.5q-196 0 -369 -55l-10 12l254 363q-134 28 -218.5 112t-84.5 193q0 139 116 229t296 90q167 0 276 -73q-31 57 -31 110q0 106 119 187l84 -136q-73 -29 -109 -60t-36 -71 q0 -31 30 -75q80 -83 80 -201q0 -131 -120.5 -223t-292.5 -92q-41 0 -82 6l-144 -209l4 -2q125 49 303 49q201 0 317 -76t116 -207q0 -151 -142.5 -246.5t-365.5 -95.5q-137 0 -253 37t-229 115zM270 715q0 -136 61 -211.5t163 -75.5q101 0 162 78t61 215q0 148 -57.5 222.5 t-165.5 74.5t-166 -75.5t-58 -227.5z" />
<glyph unicode="h" horiz-adv-x="1212" d="M80 1481v8h285v-612q33 33 59 55t68 49.5t92.5 42t107.5 14.5q182 0 273.5 -100.5t91.5 -294.5v-514q0 -75 82 -121v-8h-367v8q82 46 82 121v563q0 131 -62.5 204t-179.5 73q-19 0 -37.5 -2.5t-33.5 -5.5t-31.5 -10t-27.5 -11.5t-26 -14.5t-22.5 -14.5t-21 -16t-17.5 -15 t-16.5 -15t-13.5 -12.5v-723q0 -76 81 -121v-8h-364v8q82 46 82 121v1225q0 80 -84 127z" />
<glyph unicode="i" horiz-adv-x="542" d="M94 1008v8h285v-887q0 -75 82 -121v-8h-365v8q82 46 82 121v752q0 80 -84 127zM139 1364q0 53 39.5 92t95.5 39q54 0 93 -39t39 -92q0 -56 -39.5 -95.5t-92.5 -39.5q-56 0 -95.5 40t-39.5 95z" />
<glyph unicode="j" horiz-adv-x="514" d="M72 -420q33 36 61.5 122t28.5 187v992q0 80 -84 127v8h284v-1020q0 -63 -18.5 -122t-45 -101t-67.5 -84t-73.5 -67.5t-75.5 -55.5zM117 1364q0 53 39.5 92t95.5 39q54 0 93.5 -39t39.5 -92q0 -56 -39.5 -95.5t-93.5 -39.5q-56 0 -95.5 40t-39.5 95z" />
<glyph unicode="k" horiz-adv-x="1095" d="M80 1481v8h285v-944l372 309q30 26 44.5 55t5 57t-47.5 42v8h291v-8q-108 -45 -231 -148l-197 -162l373 -579q13 -19 26.5 -34t32 -28t25.5 -18t31 -18l24 -13v-8h-383v8q46 12 50 42v7q0 28 -27 68l-295 453l-94 -78v-371q0 -76 81 -121v-8h-364v8q82 46 82 121v1225 q0 80 -84 127z" />
<glyph unicode="l" horiz-adv-x="528" d="M80 1481v8h285v-1360q0 -76 81 -121v-8h-364v8q82 46 82 121v1225q0 80 -84 127z" />
<glyph unicode="m" horiz-adv-x="1820" d="M94 1008v8h277v-144h4q31 33 58 56.5t68.5 51.5t92.5 43t108 15q217 0 291 -174q164 174 344 174q163 0 244.5 -100.5t81.5 -294.5v-514q0 -75 82 -121v-8h-365v8q82 46 82 121l2 561q0 131 -54 203t-153 72q-59 0 -117 -23t-83.5 -42t-59.5 -48q31 -85 31 -201v-522 q0 -75 82 -121v-8h-362v8q79 43 79 107l2 575q0 131 -54 203t-152 72q-53 0 -104.5 -19.5t-73 -35t-57.5 -45.5q-6 -5 -9 -7v-729q0 -75 82 -121v-8h-365v8q82 46 82 121v752q0 80 -84 127z" />
<glyph unicode="n" horiz-adv-x="1226" d="M94 1008v8h281v-142q34 33 61.5 55.5t71 50.5t96 43t109.5 15q180 0 269 -100.5t89 -288.5v-520q0 -75 82 -121v-8h-367v8q82 46 82 121v563q0 129 -62 202t-179 73q-51 0 -100 -18.5t-78.5 -39t-69.5 -53.5v-727q0 -75 82 -121v-8h-365v8q82 46 82 121v752q0 81 -84 127 z" />
<glyph unicode="o" horiz-adv-x="1251" d="M86 508q0 141 68.5 262t193.5 194.5t277 73.5q157 0 281.5 -71t191.5 -191.5t67 -267.5q0 -104 -40 -200.5t-110 -169.5t-172 -117t-218 -44q-158 0 -281.5 70.5t-190.5 191.5t-67 269zM301 508q0 -128 38.5 -241.5t115.5 -188t176 -74.5q98 0 172 69.5t110.5 182.5 t36.5 252q0 96 -22.5 186t-63.5 161t-104.5 114t-138.5 43q-98 0 -172 -70t-111 -183t-37 -251z" />
<glyph unicode="p" horiz-adv-x="1234" d="M78 1008v8h282v-121q125 143 312 143q211 0 342 -145.5t131 -384.5q0 -109 -37.5 -207.5t-100.5 -169.5t-150.5 -112.5t-184.5 -41.5q-186 0 -310 142v-355q0 -74 82 -120v-9h-364v9q82 46 82 120v1117q0 80 -84 127zM362 139q96 -87 226 -90h2q158 0 248 129 q92 129 92 328q0 125 -39 229t-119 168q-77 62 -180 62h-6q-127 0 -224 -91v-735z" />
<glyph unicode="q" horiz-adv-x="1232" d="M88 508q0 222 138.5 376t336.5 154q183 0 311 -143v121h283v-8q-84 -47 -84 -127v-1117q0 -74 82 -120v-9h-367v9q82 46 82 120v353q-129 -140 -307 -140q-213 0 -344 147.5t-131 383.5zM303 508q0 -124 40.5 -225t122 -163.5t189.5 -62.5q124 0 215 82v738 q-97 81 -217 81q-107 0 -188 -61t-121.5 -162.5t-40.5 -226.5z" />
<glyph unicode="r" horiz-adv-x="808" d="M92 1008v8h281v-240q64 111 162.5 184.5t212.5 73.5v-256h-11q-14 54 -44 80.5t-85 26.5q-114 0 -229 -127v-629q0 -75 82 -121v-8h-367v8q84 47 84 121v752q0 79 -86 127z" />
<glyph unicode="s" horiz-adv-x="925" d="M63 289h13q77 -143 167.5 -214t213.5 -71q106 0 166.5 53.5t60.5 145.5q0 81 -57 138.5t-203 123.5q-168 79 -230.5 146.5t-62.5 166.5q0 114 88.5 187t226.5 73q52 0 109 -12t68 -12q54 0 75 35h2l78 -281h-10q-71 122 -143.5 183t-155.5 61q-73 0 -118.5 -39.5 t-45.5 -102.5q0 -76 52.5 -128.5t203.5 -118.5q159 -72 225 -149t66 -189q0 -136 -103.5 -222t-269.5 -86q-64 0 -138.5 13.5t-96.5 13.5q-58 0 -90 -37h-4z" />
<glyph unicode="t" horiz-adv-x="782" d="M27 985v31h174v182l190 135h12v-317h342v-31h-342v-680q0 -118 43.5 -175.5t133.5 -57.5q118 0 202 100l11 -8q-109 -182 -306 -182q-139 0 -212.5 79t-73.5 238v686h-174z" />
<glyph unicode="u" horiz-adv-x="1198" d="M74 1008v8h284v-692q0 -128 57.5 -201.5t155.5 -73.5q49 0 89 9.5t75 32.5t48.5 34t45.5 41v721q0 76 -81 121v8h284v-881q0 -80 84 -127v-8h-276v154q-32 -36 -59.5 -61t-70 -54.5t-94.5 -45.5t-110 -16q-171 0 -260.5 101.5t-89.5 294.5v514q0 75 -82 121z" />
<glyph unicode="v" horiz-adv-x="1058" d="M14 1008v8h392v-6q-51 -15 -68 -53q-7 -16 -7 -36q0 -27 13 -61l270 -647l256 621q16 38 16 68q0 73 -91 106v8h266v-8q-61 -24 -92.5 -60.5t-57.5 -99.5l-348 -848h-65l-363 860q-44 104 -121 148z" />
<glyph unicode="w" horiz-adv-x="1601" d="M10 1008v8h381v-6q-45 -16 -60 -54q-6 -15 -6 -33q0 -27 13 -63l266 -647l189 506l-52 141q-38 105 -112 148v8h383v-6q-75 -23 -75 -91q0 -26 11 -59l228 -641l229 615q16 38 16 69q0 72 -88 105v8h266v-8q-62 -24 -93.5 -61t-55.5 -99l-317 -848h-78l-244 668 l-244 -668h-80l-356 860q-44 104 -121 148z" />
<glyph unicode="x" horiz-adv-x="1036" d="M6 0v8q16 6 31 14.5t25.5 15t23.5 19t19 17.5t18.5 21t15.5 19.5t16.5 22.5t14.5 21l256 340l-264 366q-73 105 -148 144v8h406v-6q-48 -16 -61 -52q-4 -10 -4 -22q0 -29 24 -66l211 -292l198 274q25 35 25 67q0 13 -4 25q-15 42 -76 64v8h264v-8q-22 -8 -41.5 -20 t-32.5 -22.5t-28.5 -27.5t-22.5 -25.5t-22 -28.5t-19 -26l-223 -305l291 -401q73 -106 145 -144v-8h-405v6q49 16 62 52q4 10 4 20q0 29 -25 67l-236 328l-229 -309q-25 -35 -25 -66q0 -13 5 -26q15 -42 75 -64v-8h-264z" />
<glyph unicode="y" horiz-adv-x="1046" d="M10 1008v8h389v-6q-52 -16 -71 -54q-9 -17 -9 -38q0 -26 13 -58l264 -641l262 629q15 31 15 58q0 22 -9 42q-21 45 -82 60v8h265v-8q-62 -24 -94 -61.5t-62 -104.5l-279 -660v-2l-6 -10l-237 -563h-11q-40 23 -129 43l-118 22v13q147 0 232.5 67.5t145.5 210.5l13 29 l-365 868q-47 106 -127 148z" />
<glyph unicode="z" horiz-adv-x="950" d="M74 0v41l569 948h-367q-50 0 -102 -48t-80 -112h-8v187h774v-39l-573 -950h401q49 0 100.5 48.5t79.5 110.5h9v-186h-803z" />
<glyph unicode="{" d="M129 154v292q61 9 76 9q67 0 96 -37.5t29 -116.5t-29.5 -115t-97.5 -36q-47 0 -74 4zM158 780q0 53 33.5 91t93.5 38q39 0 78 -21t69.5 -55t58.5 -74.5t48 -81.5t35 -75t22 -55l8 -21q-117 148 -319 148q-49 0 -88 30t-39 76zM188 201q4 -2 19 -2q37 0 50 25t13 77 q0 54 -13 78t-50 24q-13 0 -19 -2v-200zM377 154v297h155v-52h-96v-69h82v-49h-82v-78h96v-49h-155zM437 1128.5q-7 46.5 24 83.5q23 23 53 34t65 3.5t64 -35.5q38 -37 48.5 -102t-2.5 -131t-31.5 -126.5t-35.5 -98.5l-18 -39q20 191 -125 330q-35 35 -42 81.5zM571 154 q3 156 15 297h80l39 -164l38 164h82q3 -45 13 -297h-60q0 108 -6 213l-41 -168h-55l-41 168h-2q-4 -140 -4 -213h-58zM647 633q3 8 9 22t25 53.5t39 75.5t50 80.5t59.5 76t66 53.5t71.5 22q49 0 79.5 -24.5t39 -51t8.5 -53.5q0 -43 -34.5 -72.5t-72.5 -34.5 q-213 -23 -340 -147zM879 301q0 81 24 117.5t84 36.5t85.5 -37t25.5 -117q0 -79 -25.5 -115t-85.5 -36t-84 35.5t-24 115.5zM938 301q0 -54 10 -78t39 -24q30 0 40.5 24t10.5 78q0 55 -10 78.5t-41 23.5q-29 0 -39 -23.5t-10 -78.5z" />
<glyph unicode="|" d="M129 154v292q61 9 76 9q67 0 96 -37.5t29 -116.5t-29.5 -115t-97.5 -36q-47 0 -74 4zM158 780q0 53 33.5 91t93.5 38q39 0 78 -21t69.5 -55t58.5 -74.5t48 -81.5t35 -75t22 -55l8 -21q-117 148 -319 148q-49 0 -88 30t-39 76zM188 201q4 -2 19 -2q37 0 50 25t13 77 q0 54 -13 78t-50 24q-13 0 -19 -2v-200zM377 154v297h155v-52h-96v-69h82v-49h-82v-78h96v-49h-155zM437 1128.5q-7 46.5 24 83.5q23 23 53 34t65 3.5t64 -35.5q38 -37 48.5 -102t-2.5 -131t-31.5 -126.5t-35.5 -98.5l-18 -39q20 191 -125 330q-35 35 -42 81.5zM571 154 q3 156 15 297h80l39 -164l38 164h82q3 -45 13 -297h-60q0 108 -6 213l-41 -168h-55l-41 168h-2q-4 -140 -4 -213h-58zM647 633q3 8 9 22t25 53.5t39 75.5t50 80.5t59.5 76t66 53.5t71.5 22q49 0 79.5 -24.5t39 -51t8.5 -53.5q0 -43 -34.5 -72.5t-72.5 -34.5 q-213 -23 -340 -147zM879 301q0 81 24 117.5t84 36.5t85.5 -37t25.5 -117q0 -79 -25.5 -115t-85.5 -36t-84 35.5t-24 115.5zM938 301q0 -54 10 -78t39 -24q30 0 40.5 24t10.5 78q0 55 -10 78.5t-41 23.5q-29 0 -39 -23.5t-10 -78.5z" />
<glyph unicode="}" d="M129 154v292q61 9 76 9q67 0 96 -37.5t29 -116.5t-29.5 -115t-97.5 -36q-47 0 -74 4zM158 780q0 53 33.5 91t93.5 38q39 0 78 -21t69.5 -55t58.5 -74.5t48 -81.5t35 -75t22 -55l8 -21q-117 148 -319 148q-49 0 -88 30t-39 76zM188 201q4 -2 19 -2q37 0 50 25t13 77 q0 54 -13 78t-50 24q-13 0 -19 -2v-200zM377 154v297h155v-52h-96v-69h82v-49h-82v-78h96v-49h-155zM437 1128.5q-7 46.5 24 83.5q23 23 53 34t65 3.5t64 -35.5q38 -37 48.5 -102t-2.5 -131t-31.5 -126.5t-35.5 -98.5l-18 -39q20 191 -125 330q-35 35 -42 81.5zM571 154 q3 156 15 297h80l39 -164l38 164h82q3 -45 13 -297h-60q0 108 -6 213l-41 -168h-55l-41 168h-2q-4 -140 -4 -213h-58zM647 633q3 8 9 22t25 53.5t39 75.5t50 80.5t59.5 76t66 53.5t71.5 22q49 0 79.5 -24.5t39 -51t8.5 -53.5q0 -43 -34.5 -72.5t-72.5 -34.5 q-213 -23 -340 -147zM879 301q0 81 24 117.5t84 36.5t85.5 -37t25.5 -117q0 -79 -25.5 -115t-85.5 -36t-84 35.5t-24 115.5zM938 301q0 -54 10 -78t39 -24q30 0 40.5 24t10.5 78q0 55 -10 78.5t-41 23.5q-29 0 -39 -23.5t-10 -78.5z" />
<glyph unicode="~" d="M129 154v292q61 9 76 9q67 0 96 -37.5t29 -116.5t-29.5 -115t-97.5 -36q-47 0 -74 4zM158 780q0 53 33.5 91t93.5 38q39 0 78 -21t69.5 -55t58.5 -74.5t48 -81.5t35 -75t22 -55l8 -21q-117 148 -319 148q-49 0 -88 30t-39 76zM188 201q4 -2 19 -2q37 0 50 25t13 77 q0 54 -13 78t-50 24q-13 0 -19 -2v-200zM377 154v297h155v-52h-96v-69h82v-49h-82v-78h96v-49h-155zM437 1128.5q-7 46.5 24 83.5q23 23 53 34t65 3.5t64 -35.5q38 -37 48.5 -102t-2.5 -131t-31.5 -126.5t-35.5 -98.5l-18 -39q20 191 -125 330q-35 35 -42 81.5zM571 154 q3 156 15 297h80l39 -164l38 164h82q3 -45 13 -297h-60q0 108 -6 213l-41 -168h-55l-41 168h-2q-4 -140 -4 -213h-58zM647 633q3 8 9 22t25 53.5t39 75.5t50 80.5t59.5 76t66 53.5t71.5 22q49 0 79.5 -24.5t39 -51t8.5 -53.5q0 -43 -34.5 -72.5t-72.5 -34.5 q-213 -23 -340 -147zM879 301q0 81 24 117.5t84 36.5t85.5 -37t25.5 -117q0 -79 -25.5 -115t-85.5 -36t-84 35.5t-24 115.5zM938 301q0 -54 10 -78t39 -24q30 0 40.5 24t10.5 78q0 55 -10 78.5t-41 23.5q-29 0 -39 -23.5t-10 -78.5z" />
<glyph unicode="&#xad;" d="M129 154v292q61 9 76 9q67 0 96 -37.5t29 -116.5t-29.5 -115t-97.5 -36q-47 0 -74 4zM158 780q0 53 33.5 91t93.5 38q39 0 78 -21t69.5 -55t58.5 -74.5t48 -81.5t35 -75t22 -55l8 -21q-117 148 -319 148q-49 0 -88 30t-39 76zM188 201q4 -2 19 -2q37 0 50 25t13 77 q0 54 -13 78t-50 24q-13 0 -19 -2v-200zM377 154v297h155v-52h-96v-69h82v-49h-82v-78h96v-49h-155zM437 1128.5q-7 46.5 24 83.5q23 23 53 34t65 3.5t64 -35.5q38 -37 48.5 -102t-2.5 -131t-31.5 -126.5t-35.5 -98.5l-18 -39q20 191 -125 330q-35 35 -42 81.5zM571 154 q3 156 15 297h80l39 -164l38 164h82q3 -45 13 -297h-60q0 108 -6 213l-41 -168h-55l-41 168h-2q-4 -140 -4 -213h-58zM647 633q3 8 9 22t25 53.5t39 75.5t50 80.5t59.5 76t66 53.5t71.5 22q49 0 79.5 -24.5t39 -51t8.5 -53.5q0 -43 -34.5 -72.5t-72.5 -34.5 q-213 -23 -340 -147zM879 301q0 81 24 117.5t84 36.5t85.5 -37t25.5 -117q0 -79 -25.5 -115t-85.5 -36t-84 35.5t-24 115.5zM938 301q0 -54 10 -78t39 -24q30 0 40.5 24t10.5 78q0 55 -10 78.5t-41 23.5q-29 0 -39 -23.5t-10 -78.5z" />
<glyph unicode="&#x2000;" horiz-adv-x="770" />
<glyph unicode="&#x2001;" horiz-adv-x="1540" />
<glyph unicode="&#x2002;" horiz-adv-x="770" />
<glyph unicode="&#x2003;" horiz-adv-x="1540" />
<glyph unicode="&#x2004;" horiz-adv-x="513" />
<glyph unicode="&#x2005;" horiz-adv-x="385" />
<glyph unicode="&#x2006;" horiz-adv-x="256" />
<glyph unicode="&#x2007;" horiz-adv-x="256" />
<glyph unicode="&#x2008;" horiz-adv-x="192" />
<glyph unicode="&#x2009;" horiz-adv-x="308" />
<glyph unicode="&#x200a;" horiz-adv-x="85" />
<glyph unicode="&#x2010;" d="M129 154v292q61 9 76 9q67 0 96 -37.5t29 -116.5t-29.5 -115t-97.5 -36q-47 0 -74 4zM158 780q0 53 33.5 91t93.5 38q39 0 78 -21t69.5 -55t58.5 -74.5t48 -81.5t35 -75t22 -55l8 -21q-117 148 -319 148q-49 0 -88 30t-39 76zM188 201q4 -2 19 -2q37 0 50 25t13 77 q0 54 -13 78t-50 24q-13 0 -19 -2v-200zM377 154v297h155v-52h-96v-69h82v-49h-82v-78h96v-49h-155zM437 1128.5q-7 46.5 24 83.5q23 23 53 34t65 3.5t64 -35.5q38 -37 48.5 -102t-2.5 -131t-31.5 -126.5t-35.5 -98.5l-18 -39q20 191 -125 330q-35 35 -42 81.5zM571 154 q3 156 15 297h80l39 -164l38 164h82q3 -45 13 -297h-60q0 108 -6 213l-41 -168h-55l-41 168h-2q-4 -140 -4 -213h-58zM647 633q3 8 9 22t25 53.5t39 75.5t50 80.5t59.5 76t66 53.5t71.5 22q49 0 79.5 -24.5t39 -51t8.5 -53.5q0 -43 -34.5 -72.5t-72.5 -34.5 q-213 -23 -340 -147zM879 301q0 81 24 117.5t84 36.5t85.5 -37t25.5 -117q0 -79 -25.5 -115t-85.5 -36t-84 35.5t-24 115.5zM938 301q0 -54 10 -78t39 -24q30 0 40.5 24t10.5 78q0 55 -10 78.5t-41 23.5q-29 0 -39 -23.5t-10 -78.5z" />
<glyph unicode="&#x2011;" d="M129 154v292q61 9 76 9q67 0 96 -37.5t29 -116.5t-29.5 -115t-97.5 -36q-47 0 -74 4zM158 780q0 53 33.5 91t93.5 38q39 0 78 -21t69.5 -55t58.5 -74.5t48 -81.5t35 -75t22 -55l8 -21q-117 148 -319 148q-49 0 -88 30t-39 76zM188 201q4 -2 19 -2q37 0 50 25t13 77 q0 54 -13 78t-50 24q-13 0 -19 -2v-200zM377 154v297h155v-52h-96v-69h82v-49h-82v-78h96v-49h-155zM437 1128.5q-7 46.5 24 83.5q23 23 53 34t65 3.5t64 -35.5q38 -37 48.5 -102t-2.5 -131t-31.5 -126.5t-35.5 -98.5l-18 -39q20 191 -125 330q-35 35 -42 81.5zM571 154 q3 156 15 297h80l39 -164l38 164h82q3 -45 13 -297h-60q0 108 -6 213l-41 -168h-55l-41 168h-2q-4 -140 -4 -213h-58zM647 633q3 8 9 22t25 53.5t39 75.5t50 80.5t59.5 76t66 53.5t71.5 22q49 0 79.5 -24.5t39 -51t8.5 -53.5q0 -43 -34.5 -72.5t-72.5 -34.5 q-213 -23 -340 -147zM879 301q0 81 24 117.5t84 36.5t85.5 -37t25.5 -117q0 -79 -25.5 -115t-85.5 -36t-84 35.5t-24 115.5zM938 301q0 -54 10 -78t39 -24q30 0 40.5 24t10.5 78q0 55 -10 78.5t-41 23.5q-29 0 -39 -23.5t-10 -78.5z" />
<glyph unicode="&#x2012;" d="M129 154v292q61 9 76 9q67 0 96 -37.5t29 -116.5t-29.5 -115t-97.5 -36q-47 0 -74 4zM158 780q0 53 33.5 91t93.5 38q39 0 78 -21t69.5 -55t58.5 -74.5t48 -81.5t35 -75t22 -55l8 -21q-117 148 -319 148q-49 0 -88 30t-39 76zM188 201q4 -2 19 -2q37 0 50 25t13 77 q0 54 -13 78t-50 24q-13 0 -19 -2v-200zM377 154v297h155v-52h-96v-69h82v-49h-82v-78h96v-49h-155zM437 1128.5q-7 46.5 24 83.5q23 23 53 34t65 3.5t64 -35.5q38 -37 48.5 -102t-2.5 -131t-31.5 -126.5t-35.5 -98.5l-18 -39q20 191 -125 330q-35 35 -42 81.5zM571 154 q3 156 15 297h80l39 -164l38 164h82q3 -45 13 -297h-60q0 108 -6 213l-41 -168h-55l-41 168h-2q-4 -140 -4 -213h-58zM647 633q3 8 9 22t25 53.5t39 75.5t50 80.5t59.5 76t66 53.5t71.5 22q49 0 79.5 -24.5t39 -51t8.5 -53.5q0 -43 -34.5 -72.5t-72.5 -34.5 q-213 -23 -340 -147zM879 301q0 81 24 117.5t84 36.5t85.5 -37t25.5 -117q0 -79 -25.5 -115t-85.5 -36t-84 35.5t-24 115.5zM938 301q0 -54 10 -78t39 -24q30 0 40.5 24t10.5 78q0 55 -10 78.5t-41 23.5q-29 0 -39 -23.5t-10 -78.5z" />
<glyph unicode="&#x2013;" horiz-adv-x="1279" d="M129 154v292q64 9 80 9q71 0 101.5 -37.5t30.5 -116.5t-31 -115t-103 -36q-49 0 -78 4zM160 780q0 53 35 91t99 38q41 0 82 -21t73.5 -55t62 -74.5t50.5 -81.5t37 -75t24 -55l8 -21q-124 148 -337 148q-52 0 -93 30t-41 76zM191 201q5 -2 20 -2q40 0 53.5 25t13.5 77 q0 54 -13.5 78t-53.5 24q-13 0 -20 -2v-200zM391 154v297h164v-52h-102v-69h87v-49h-87v-78h102v-49h-164zM454.5 1128.5q-7.5 46.5 25.5 83.5q24 23 56 34t69 3.5t67 -35.5q40 -37 51.5 -102t-2.5 -131t-33.5 -126.5t-37.5 -98.5l-19 -39q21 191 -132 330 q-37 35 -44.5 81.5zM596 154q3 156 16 297h84l42 -164l40 164h87q3 -45 13 -297h-63q0 108 -7 213l-43 -168h-58l-43 168h-2q-5 -140 -5 -213h-61zM676 633q4 8 10 22t26 53.5t41.5 75.5t53 80.5t62.5 76t70 53.5t76 22q51 0 83.5 -24.5t41.5 -51t9 -53.5q0 -43 -36.5 -72.5 t-76.5 -34.5q-225 -23 -360 -147zM922 301q0 81 25 117.5t88.5 36.5t90.5 -37t27 -117q0 -79 -27 -115t-90.5 -36t-88.5 35.5t-25 115.5zM984 301q0 -54 10.5 -78t41.5 -24t42.5 24t11.5 78q0 55 -11 78.5t-43 23.5q-31 0 -41.5 -23.5t-10.5 -78.5z" />
<glyph unicode="&#x2014;" horiz-adv-x="2303" d="M129 154v292q129 9 161 9q141 0 202.5 -37.5t61.5 -116.5t-62.5 -115t-206.5 -36q-99 0 -156 4zM190 780q0 53 71 91t198 38q82 0 164.5 -21t147 -55t123.5 -74.5t101.5 -81.5t74 -75t46.5 -55l17 -21q-247 148 -674 148q-104 0 -186.5 30t-82.5 76zM254 201q8 -2 40 -2 q78 0 105.5 25t27.5 77q0 54 -27.5 78t-105.5 24q-28 0 -40 -2v-200zM653 154v297h328v-52h-203v-69h173v-49h-173v-78h203v-49h-328zM780 1128.5q-15 46.5 51 83.5q48 23 111.5 34t137.5 3.5t135 -35.5q81 -37 103 -102t-5.5 -131t-66.5 -126.5t-75 -98.5l-38 -39 q42 191 -264 330q-74 35 -89 81.5zM1063 154q7 156 32 297h169l82 -164l81 164h173q6 -45 27 -297h-126q0 108 -13 213l-87 -168h-116l-87 168h-4q-8 -140 -8 -213h-123zM1224 633q6 8 19 22t53 53.5t82 75.5t105.5 80.5t126 76t139.5 53.5t151 22q104 0 168.5 -24.5 t82.5 -51t18 -53.5q0 -43 -73 -72.5t-154 -34.5q-450 -23 -718 -147zM1714 301q0 81 51 117.5t177.5 36.5t180.5 -37t54 -117q0 -79 -54 -115t-180.5 -36t-177.5 35.5t-51 115.5zM1839 301q0 -54 21 -78t82 -24q64 0 86 24t22 78q0 55 -21 78.5t-87 23.5q-61 0 -82 -23.5 t-21 -78.5z" />
<glyph unicode="&#x202f;" horiz-adv-x="308" />
<glyph unicode="&#x205f;" horiz-adv-x="385" />
<glyph unicode="&#x25fc;" horiz-adv-x="1013" d="M0 0v1014h1014v-1014h-1014z" />
</font>
</defs>
</svg>
