<!-- Generated by IcoMoon.io -->
<svg version="1.1" xmlns="http://www.w3.org/2000/svg" width="1024" height="1024" viewBox="0 0 1024 1024">
<title></title>
<g id="icomoon-ignore">
</g>
<path d="M719.094-0.139h-413.91c-168.549 0-305.322 136.773-305.322 305.045v413.91c0 168.274 136.773 305.045 305.045 305.045h413.91c168.274 0 305.045-136.771 305.045-305.045v-413.91c0-168.272-136.771-305.045-305.045-305.045h0.277zM921.076 719.094c0 111.628-90.631 201.982-201.982 201.982h-413.91c-111.629 0-201.983-90.631-201.983-201.982v-413.91c0-111.629 90.63-201.983 201.983-201.983h413.91c111.628 0 201.982 90.354 201.982 201.983v413.91z"></path>
<path d="M512.145 247.163c-146.168 0-264.981 118.814-264.981 264.981s118.814 264.981 264.981 264.981c146.168 0 264.981-118.813 264.981-264.981s-118.813-264.981-264.981-264.981zM512.145 674.062c-89.525 0-161.917-72.393-161.917-161.917s72.393-161.917 161.917-161.917c89.525 0 161.917 72.393 161.917 161.917s-72.393 161.917-161.917 161.917z"></path>
<path d="M777.399 312.645c35.1 0 63.55-28.453 63.55-63.55s-28.451-63.551-63.55-63.551c-35.097 0-63.55 28.453-63.55 63.551s28.454 63.55 63.55 63.55z"></path>
</svg>
