<svg width="24" height="24" viewBox="0 0 24 24" fill="none" xmlns="http://www.w3.org/2000/svg">
<g id="Icons / Green / Arrows / Left">
<path id="Line 1 (Stroke)" fill-rule="evenodd" clip-rule="evenodd" d="M5 11.95C5 11.2596 5.49746 10.7 6.11111 10.7L19.8889 10.7C20.5025 10.7 21 11.2596 21 11.95C21 12.6403 20.5025 13.2 19.8889 13.2L6.11111 13.2C5.49746 13.2 5 12.6403 5 11.95Z" fill="#C7ECE5"/>
<g id="Shape">
<path d="M12.4776 4.47865C12.4776 4.71369 12.3889 4.94873 12.2116 5.13677L5.65037 11.906L12.0343 18.8632C12.3889 19.2393 12.3889 19.8504 12.0343 20.1795C11.6796 20.5555 11.1033 20.5555 10.793 20.1795L3.7884 12.5641C3.43373 12.188 3.43374 11.5769 3.7884 11.2479L10.9703 3.82053C11.325 3.44446 11.9013 3.44446 12.2116 3.82053C12.3889 4.00856 12.4776 4.2436 12.4776 4.47865Z" fill="#4DC3AB"/>
<path fill-rule="evenodd" clip-rule="evenodd" d="M12.5812 5.51734L6.37884 11.9163L12.4116 18.4909C12.9426 19.057 12.9816 20.0105 12.3967 20.5675C11.8536 21.1296 10.9349 21.1676 10.4053 20.5407L3.41128 12.9367C2.8797 12.3702 2.84093 11.4156 3.42718 10.8587L10.5983 3.44254C11.1397 2.87128 12.0651 2.82874 12.598 3.45788C12.861 3.74297 13 4.10675 13 4.47865C13 4.85608 12.8568 5.22515 12.5862 5.51209L12.5812 5.51734ZM12.2116 3.82053C11.9013 3.44446 11.325 3.44446 10.9703 3.82053L3.7884 11.2479C3.43374 11.5769 3.43373 12.188 3.7884 12.5641L10.793 20.1795C11.1033 20.5555 11.6796 20.5555 12.0343 20.1795C12.3889 19.8504 12.3889 19.2393 12.0343 18.8632L5.65037 11.906L12.2116 5.13677C12.3889 4.94873 12.4776 4.71369 12.4776 4.47865C12.4776 4.2436 12.3889 4.00856 12.2116 3.82053Z" fill="#4DC3AB"/>
</g>
</g>
</svg>
