<!-- Generated by IcoMoon.io -->
<svg version="1.1" xmlns="http://www.w3.org/2000/svg" width="995" height="1024" viewBox="0 0 995 1024">
<title></title>
<g id="icomoon-ignore">
</g>
<path d="M242.478 969.289c0 18.432-15.191 33.646-33.596 33.646h-144.026c-18.989 0-34.181-15.214-34.181-33.646v-604.453c0-18.432 15.191-33.646 34.181-33.646h143.734c18.405 0 33.596 15.214 33.596 33.646v604.453h0.292zM136.722 273.847c-75.665 0-136.722-60.855-136.722-136.631s61.058-137.216 136.43-137.216c75.373 0 137.015 61.44 137.015 137.216s-61.35 136.631-137.015 136.631h0.292zM995.035 972.215c0 16.969-13.73 30.72-31.258 30.72h-153.96c-17.528 0-31.258-13.751-31.258-30.72v-283.794c0-42.423 12.268-185.198-110.139-185.198-95.53 0-114.518 97.719-118.608 141.605v327.095c0 16.969-14.023 30.72-31.261 30.72h-149.285c-17.528 0-31.258-13.751-31.258-30.72v-609.426c0-16.969 13.73-31.305 31.258-31.305h149.285c16.946 0 31.261 14.043 31.261 31.305v52.663c35.056-53.248 87.643-94.208 199.531-94.208 247.153 0 245.693 231.424 245.693 358.985v292.279z"></path>
</svg>
